<?xml version="1.0" encoding="utf-8"?>
<!-- Generator: Adobe Illustrator 20.0.0, SVG Export Plug-In . SVG Version: 6.00 Build 0)  -->
<svg version="1.1" xmlns="http://www.w3.org/2000/svg" xmlns:xlink="http://www.w3.org/1999/xlink" x="0px" y="0px"
	 viewBox="0 0 120 120" enable-background="new 0 0 120 120" xml:space="preserve">
	 <title>Wheat</title>
<g>
	<path d="M14.0566006,24L29,37.3108749v14.897625c0,0-12.5006485-10.0436249-13.1523991-12.1694984
		C15.2011003,37.9135017,13.875,33.875,14.0566006,24z M29,99.7371216l-0.0839996-14.8976212L14,71.9691238
		C14,82.125,15.5217505,85.4440002,16.1735001,87.566124C16.8237495,89.6938782,28.9981251,99.7352524,29,99.7371216z M30.5,1
		c0,0-5.5,12.7740574-5.5,15.0157509C25,18.125,30.5534859,31,30.5534859,31S36,17.90625,36,15.9497499C36,13.7075891,30.5,1,30.5,1
		z M29,75.852623l-0.0862503-14.8916245L14,48.0864983C14,58.125,15.5198755,61.5576248,16.1697502,63.6816254
		C16.8233757,65.8056259,29,75.852623,29,75.852623z M46.9433975,24L32,37.3108749v14.897625
		c0,0,12.5006485-10.0436249,13.152401-12.1694984C45.7989006,37.9135017,47.125,33.875,46.9433975,24z M44.8264999,87.566124
		C45.4782486,85.4440002,47,82.125,47,71.9691238L32.0839996,84.8395004L32,99.7371216
		C32.0018768,99.7352524,44.1762505,89.6938782,44.8264999,87.566124z M44.8302498,63.6816254
		C45.4801254,61.5576248,47,58.125,47,48.0864983L32.0862503,60.9609985L32,75.852623
		C32,75.852623,44.1766243,65.8056259,44.8302498,63.6816254z M32,102h-3v16h3V102z M74.0507507,45.4075928
		c-0.4985046,2.1669388,5.3055573,17.1152954,5.3055573,17.1152954l7.4488144-12.901722L80.5191956,30.621912
		C75.4244232,39.0831146,74.5536118,43.2436066,74.0507507,45.4075928z M55.5919991,103.6838837l7.3760643-12.943718
		l-6.4824448-18.6040726c-5.0779381,8.7952423-5.4195633,12.4304581-5.9161949,14.5941467
		C50.0686798,88.8980484,55.5913124,103.6813278,55.5919991,103.6838837z M106.2595978,18.9250278
		c0,0-11.1501694,8.3126583-12.2710114,10.2540207c-1.0546265,1.826664-2.6826706,15.7534847-2.6826706,15.7534847
		s11.2636948-8.6162643,12.241951-10.3106422C104.6689453,32.6801224,106.2595978,18.9250278,106.2595978,18.9250278z
		 M67.5342484,82.9993057l7.3711166-12.9396515l-6.4784393-18.6065216
		c-5.0192451,8.6935959-5.4193077,12.4262733-5.918499,14.5906525
		C62.0124817,68.2100296,67.5342484,82.9993057,67.5342484,82.9993057z M109,47.0653114l-19.5968018,4.0558548l-7.4488144,12.901722
		c0,0,15.8476944-2.4477081,17.4750671-3.9628944C101.0520859,58.5425072,104.2197723,55.7081146,109,47.0653114z
		 M75.3836517,101.0567398c1.6254883-1.51194,4.6028671-3.6254044,9.6808014-12.4206467l-19.3528214,3.6880722
		l-7.5215569,12.8597183C58.1926346,105.183197,73.7566376,102.5743027,75.3836517,101.0567398z M87.3291473,80.3740311
		c1.6248093-1.5144958,4.6573715-3.7273026,9.6766205-12.4208984L77.652832,71.6459045l-7.5205078,12.8534012
		C70.1323242,84.4993057,85.701088,81.8866577,87.3291473,80.3740311z M50.7907104,118l6.2679443-10.8564453l-2.5980835-1.5
		L47.3265991,118H50.7907104z"/>
</g>
</svg>
