<?xml version="1.0" encoding="utf-8"?>
<!-- Generator: Adobe Illustrator 18.0.0, SVG Export Plug-In . SVG Version: 6.00 Build 0)  -->
<!DOCTYPE svg PUBLIC "-//W3C//DTD SVG 1.1//EN" "http://www.w3.org/Graphics/SVG/1.1/DTD/svg11.dtd">
<svg version="1.1" id="Layer_1" xmlns="http://www.w3.org/2000/svg" xmlns:xlink="http://www.w3.org/1999/xlink" x="0px" y="0px"
	 viewBox="0 0 792 612" enable-background="new 0 0 792 612" xml:space="preserve">
<g>
	<path d="M577.7,374.8c-20.5,20.1-59.6,36.9-95.1,36.9c-35.5,0-75.7-16.9-96.1-36.9c-20.5,20.1-42.6,36.9-78.1,36.9
		c-35.5,0-73.6-16.9-94.1-36.9c-20.5,20.1-44.7,36.9-80.2,36.9c-15.8,0-30.6-3.6-44.2-9.2V612h612V402.2
		c-13.8,5.8-28.9,9.6-45.2,9.6C621.3,411.8,598.2,394.9,577.7,374.8z M396,546.2l-36.9-20.4c-26.6,20.3-57.6,30.1-82.2,28.6
		c-28.4-1.7-53.9-17.9-53.1-38.1c-0.8-20.2,24.6-36.5,53.1-38.1c24.5-1.4,55.5,8.4,82.2,28.6l36.9-20.4l-9.1,29.9L396,546.2z
		 M625.5,508l-36.9-20.4c-26.6,20.3-57.6,30.1-82.2,28.6c-28.4-1.7-53.9-17.9-53.1-38.1c-0.8-20.2,24.6-36.5,53.1-38.1
		c24.5-1.4,55.5,8.4,82.2,28.6l36.9-20.4l-9.1,29.9L625.5,508z"/>
	<path d="M90,0v381.3c13.5,5.5,28.3,9.2,44.2,9.2c35.5,0,59.7-16.9,80.2-36.9c20.5,20.1,58.6,36.9,94.1,36.9
		c19.7,0,35.2-5.2,48.7-13.2c16.2-95.6-23.8-180.4-46-218.6c-16.3,14.9-31.7,22.9-45.7,22.9c-19.9,0-40-15.6-59.8-46.4
		C179,93.5,147,62.6,126,44.8c15.7-0.8,30.5-1.2,44.1-1.2c100.4,0,128.7,21.1,149.1,42.7c16.5,17.5,9,45.5,2.4,59.2
		c13.6,21.8,35.1,62.1,46.9,113.1c6.9-17.2,17.4-37.7,33.1-55.6c-5.3-12.5-5.8-22.3-1.7-30.8c6.7-13.7,33.4-39,137.2-54
		c11.9-1.7,22.4-3,31.4-3.7c-18,19.9-31.4,41.8-43,60.5c-7.3,11.9-14.2,23.1-20.9,31.6c-12.5,15.9-34.6,25.8-57.6,25.8
		c-16.7,0-30-5.6-37.2-14.7c-22,27.3-32.2,60.1-35.6,73.6c2.9,23.1,3.5,47.6,0.3,73.2c4.1-3.5,8-7.2,11.9-10.9
		c20.5,20.1,60.7,36.9,96.1,36.9c35.5,0,74.6-16.9,95.1-36.9c20.5,20.1,43.6,36.9,79.1,36.9c16.3,0,31.4-3.8,45.2-9.6V0H90z"/>
</g>
</svg>
