<?xml version="1.0" encoding="utf-8"?>
<!-- Generator: Adobe Illustrator 18.0.0, SVG Export Plug-In . SVG Version: 6.00 Build 0)  -->
<!DOCTYPE svg PUBLIC "-//W3C//DTD SVG 1.1//EN" "http://www.w3.org/Graphics/SVG/1.1/DTD/svg11.dtd">
<svg version="1.1" id="Layer_1" xmlns="http://www.w3.org/2000/svg" xmlns:xlink="http://www.w3.org/1999/xlink" x="0px" y="0px"
	 viewBox="0 0 792 612" enable-background="new 0 0 792 612" xml:space="preserve">
<g>
	<polygon points="256.5,267.8 90,434.3 90,483.7 306,267.8 	"/>
	<polygon points="415.1,497.2 415.1,485.3 403.1,497.2 	"/>
	<polygon points="434.2,321.8 144.1,612 191.2,612 434.2,369 	"/>
	<polygon points="434.2,267.8 407.2,267.8 90,584.9 90,612 117.1,612 434.2,294.8 	"/>
	<polygon points="434.2,401.6 434.2,396 428.6,401.6 	"/>
	<polygon points="180,267.8 90,357.8 90,407.2 229.5,267.8 	"/>
	<polygon points="199.1,248.6 248.6,248.6 275.6,248.6 325.1,248.6 352.1,248.6 399.3,248.6 423.6,248.6 
		453.4,248.6 453.4,248.6 472.5,248.6 472.5,153 625.5,153 625.5,95.6 549,95.6 549,0 90,0 90,248.6 172.1,248.6 	"/>
	<polygon points="90,267.8 90,330.7 153,267.8 	"/>
	<polygon points="333,267.8 90,510.8 90,557.9 380.2,267.8 	"/>
	<polygon points="338.6,497.2 376.1,497.2 415.1,458.2 415.1,415.1 218.3,612 261.3,612 338.6,534.7 	"/>
	<polygon points="587.2,420.8 453.4,420.8 434.2,420.8 434.2,516.4 384,516.4 357.8,516.4 357.8,542.6 357.8,612 
		702,612 702,516.4 587.2,516.4 	"/>
	<polygon points="288.4,612 338.6,612 338.6,561.8 	"/>
	<polygon points="568.1,0 568.1,76.5 644.6,76.5 644.6,172.1 491.6,172.1 491.6,267.8 453.4,267.8 453.4,278.4 
		453.4,302.7 453.4,349.9 453.4,376.9 453.4,401.6 606.4,401.6 606.4,497.2 702,497.2 702,0 	"/>
	<polygon points="338.6,561.8 338.6,612 357.8,612 357.8,542.6 	"/>
</g>
</svg>
