<?xml version="1.0" encoding="utf-8"?>
<!-- Generator: Adobe Illustrator 20.0.0, SVG Export Plug-In . SVG Version: 6.00 Build 0)  -->
<svg version="1.1" xmlns="http://www.w3.org/2000/svg" xmlns:xlink="http://www.w3.org/1999/xlink" x="0px" y="0px"
	 viewBox="0 0 120 120" enable-background="new 0 0 120 120" xml:space="preserve">
<title>Boundaries</title>
<g>
	<path d="M47,7h-3v3v21H7v3v79h106V7H47z M10,34h37v-2v-1V10h38v16h13v9H73v16H10V34z M10,54
		c1.8352051,0,3.5294189,0,5.1118774,0L10,59.1118774V54z M10,63.3544922L19.3544922,54c3.6069336,0,6.4825439,0,8.8851929,0
		L10,72.2396851V63.3544922z M10,76.4822998L32.4822998,54c3.4023438,0,5.8560791,0,8.8851929,0L10,85.3674316V76.4822998z
		 M10,89.6101074L45.6101074,54c2.3616333,0,5.2022095,0,8.8851929,0L10,98.4952393V89.6101074z M10,110v-7.262085L58.737854,54
		C60.9000244,54,63.303772,54,66,54c0,0.552002,0,1.0889893,0,1.6231079L11.6230469,110H10z M15.8657227,110L66,59.8656616
		c0,2.380188,0,5.1253662,0,8.8851929L24.7508545,110H15.8657227z M51,110h-8.8786621L51,101.1213379V110z M51,96.8786621
		L37.8786621,110h-8.8851318L66,72.9934692C66,73.9451294,66,74.9317017,66,76h-3v8.8786621L55.8786621,92H51V96.8786621z
		 M63,89.1213379V92h-2.8786621L63,89.1213379z M110,110H54V95h12V79h25v15h19V110z M110,91.0778198L94,91V76H69V54h7V38h25V23H88
		V10h22V91.0778198z"/>
</g>
</svg>
