<?xml version="1.0" encoding="utf-8"?>
<!-- Generator: Adobe Illustrator 20.0.0, SVG Export Plug-In . SVG Version: 6.00 Build 0)  -->
<svg version="1.1" xmlns="http://www.w3.org/2000/svg" xmlns:xlink="http://www.w3.org/1999/xlink" x="0px" y="0px"
	 viewBox="0 0 120 120" enable-background="new 0 0 120 120" xml:space="preserve">
<title>Bar and Line Chart</title>
<g>
	<path d="M52,112H37V90h15V112z M78,75H63v37h15V75z M104,53H89v59h15V53z M91.6616821,34.5982056
		c0.717041,1.1296387,1.1383057,2.4656372,1.1383057,3.9026489c0,4.0305176-3.2703247,7.2991333-7.3008423,7.2991333
		c-1.4412231,0-2.7815552-0.4238892-3.9136353-1.1456909l-14.4472656,14.418396L52.5997314,48.2589722L33.6766968,74.7487793
		L26.2920532,63.671875L9.3882446,87.34375l-3.0072632-2.1490479l20.0192871-28.0204468l7.3845825,11.0769043l18-25.2025146
		l15,11.1598511l12.2822876-12.2584839c-0.5523682-1.0274048-0.8671265-2.201355-0.8671265-3.4491577
		c0-4.0322876,3.2703247-7.3008423,7.2991333-7.3008423c1.2533569,0,2.4328003,0.3167725,3.463623,0.8735962l23.3881836-23.3428345
		l2.6105957,2.6141357L91.6616821,34.5982056z M89,36.9829102C89,35.8877563,88.1122437,35,87.0170898,35h-3.0341797
		C82.8877563,35,82,35.8877563,82,36.9829102v3.0341797C82,41.1121826,82.8877563,42,83.9829102,42h3.0341797
		C88.1122437,42,89,41.1121826,89,40.0170898V36.9829102z"/>
</g>
</svg>
