<?xml version="1.0" encoding="utf-8"?>
<!-- Generator: Adobe Illustrator 20.0.0, SVG Export Plug-In . SVG Version: 6.00 Build 0)  -->
<svg version="1.1" xmlns="http://www.w3.org/2000/svg" xmlns:xlink="http://www.w3.org/1999/xlink" x="0px" y="0px"
	 viewBox="0 0 120 120" enable-background="new 0 0 120 120" xml:space="preserve">
<title>First Aid</title>
<g>
	<path d="M112.8133545,72.8388672L94.1901855,95.7824097L91.6088257,98H43.4177246l-0.4998779,1.5021973
		L34.015686,112H7l27.1088257-31.7641602c0,0,8.7036705-7.2358398,14.7962036-7.2358398c0,0,33.6949463,0,34.3285522,0
		C85.833313,73,88,74.3823242,88,76.4398193C88,79.6774292,84.8497314,80.1016846,83.2335815,80H60.8648682l0.1282349,0.5112915
		C60.9952393,80.5108032,61,80.5089722,61,80.5089722c1.3969116,4.6255493,5.0878296,4.7836914,5.0878296,4.7836914L91.5703125,87
		l16.9176025-19.6516724C115.8317871,65.8392944,112.8133545,72.8388672,112.8133545,72.8388672z M100,31v37H45V31h12v-8.9104004
		C57,19.8309326,58.8309937,18,61.0895996,18h22.8208008C86.1690063,18,88,19.8309326,88,22.0895996V31H100z M62,31h21v-8H62V31z
		 M87.0999756,49.5c0-7.5032959-5.6622925-13.6774902-12.9456787-14.5h-3.3085938
		c-7.2833862,0.8225098-12.9456787,6.9967041-12.9456787,14.5c0,8.0632935,6.5366211,14.5999756,14.5999756,14.5999756
		S87.0999756,57.5632935,87.0999756,49.5z M82,47h-7v-7h-5v7h-7v5h7v7h5v-7h7V47z"/>
</g>
</svg>
