<?xml version="1.0" encoding="utf-8"?>
<!-- Generator: Adobe Illustrator 20.0.0, SVG Export Plug-In . SVG Version: 6.00 Build 0)  -->
<svg version="1.1" xmlns="http://www.w3.org/2000/svg" xmlns:xlink="http://www.w3.org/1999/xlink" x="0px" y="0px"
	 viewBox="0 0 120 120" enable-background="new 0 0 120 120" xml:space="preserve">
<title>Wind Turbines</title>
<g>
	<g>
		<path d="M65.5609741,40.1004639l4.9659424-7.4295654c0.095459-0.1460571,0.1813354-0.2982178,0.256958-0.4554443
			l12.7735596-26.085022c0.4141846-0.7174072,0.168396-1.6348267-0.5490723-2.0490112
			c-0.7174072-0.4142456-1.6348267-0.168396-2.0490112,0.5490112L64.7558594,28.7351685
			c-0.0983887,0.144104-0.1871948,0.2945557-0.2659912,0.4502563l-3.8960571,7.9035645
			C62.6306763,37.3886719,64.4003906,38.5059814,65.5609741,40.1004639z"/>
		<path d="M52,44.5c0-1.0084229,0.2028809-1.9696045,0.5653687-2.8486938L43,41.0228882
			c-0.1742554-0.0096436-0.348938-0.0079346-0.5229492,0.005188L13.5,43.0083618c-0.8284302,0-1.5,0.6715698-1.5,1.5
			s0.6715698,1.5,1.5,1.5l28.9770508,1.9802856C42.651062,48.00177,42.8257446,48.003479,43,47.9938354l9.5713501-0.6287842
			C52.2047119,46.4816284,52,45.5145874,52,44.5z"/>
		<path d="M70.7838745,56.833313c-0.0756226-0.1572876-0.161499-0.3093872-0.256958-0.4555054l-4.9830933-7.4552612
			C64.1778564,50.7841797,61.9810181,52,59.5,52c-0.928894,0-1.8150635-0.1775513-2.6367188-0.4876099L55,113h9
			l-1.7477417-57.6759033l2.2376099,4.5391846c0.0787964,0.1557617,0.1676025,0.3061523,0.2659912,0.4503174L80.9593506,84.418335
			c0.4141846,0.7174072,1.331604,0.9632568,2.0490112,0.5490112c0.7174683-0.4141846,0.9632568-1.331604,0.5490723-2.0490112
			L70.7838745,56.833313z"/>
	</g>
	<circle cx="59.5" cy="44.5" r="4.3000002"/>
	<g>
		<path fill="#58595B" d="M85.7895508,73.1225586c-0.4430542-0.4299316-0.8079224-0.9160156-1.0914917-1.4411011
			l-3.5265503,3.0917969c-0.0828857,0.0741577-0.1608887,0.1536865-0.2333984,0.2380371L68.7684937,88.9662476
			c-0.3734741,0.3734741-0.3734741,0.9789429,0,1.352356c0.3734131,0.3734741,0.9788818,0.3734741,1.352356,0l13.9549561-12.1696167
			c0.0843506-0.0725098,0.1638794-0.1505127,0.2380371-0.2333984l3.1948853-3.644165
			C86.8815308,73.9881592,86.2948608,73.6130371,85.7895508,73.1225586z"/>
		<path d="M85.4395142,59.427063c0.0206299,0.109314,0.0484009,0.2171631,0.0831299,0.322876l1.3953857,4.1085205
			C87.842041,63.3098145,88.8949585,63,90,63c0.2385864,0,0.4694824,0.0401001,0.703064,0.0670776l-0.8878784-4.4673462
			c-0.0228271-0.1088867-0.0526733-0.2161865-0.0894775-0.321167l-6.0005493-17.5166626
			c-0.1367188-0.5101318-0.6610718-0.8128662-1.1711426-0.6762085c-0.5101318,0.1367188-0.8128662,0.6610718-0.6762085,1.1712036
			L85.4395142,59.427063z"/>
		<path d="M90,74.8222656c-0.5648193,0-1.109436-0.102417-1.638916-0.2505493L87,113h6l-1.361084-38.4282837
			C91.109436,74.7198486,90.5648193,74.8222656,90,74.8222656z"/>
		<path d="M118.3396606,75.3764038l-17.5167236-6.0005493
			c-0.1049805-0.0368042-0.2122803-0.0667114-0.321167-0.0894775l-4.527832-0.8999023
			C95.9892578,68.5597534,96,68.7340698,96,68.9101562c0,1.1566772-0.3376465,2.2581177-0.9602051,3.2044067l4.3118286,1.4643555
			c0.1057129,0.034668,0.213562,0.062439,0.322876,0.0830688l18.170166,3.5617065
			c0.5101318,0.1367188,1.0344238-0.1660156,1.1711426-0.6761475
			C119.1524658,76.0374146,118.8497925,75.5130615,118.3396606,75.3764038z"/>
	</g>
	<path d="M92.1213226,66.8526382c1.1715698,1.1368484,1.1715698,2.9800491,0,4.1168976
		c-1.1715775,1.1368561-3.0710678,1.1368561-4.2426453,0c-1.1715698-1.1368484-1.1715698-2.9800491,0-4.1168976
		C89.0502548,65.7157898,90.9497452,65.7157898,92.1213226,66.8526382z"/>
	<g>
		<path d="M41.3319092,77.9764404c-0.0473022-0.100708-0.1010742-0.1981812-0.1610718-0.2918701
			l-2.5327148-3.8677979c-0.1298828,0.1569824-0.2678223,0.3086548-0.4152832,0.4533691
			c-1.1396484,1.1182861-2.6520996,1.7124023-4.2600708,1.6730347c-0.5635986-0.0137329-1.1139526-0.1083984-1.640625-0.2722778
			L31,113h6l-1.2905884-36.4378662l1.59198,3.3079224c0.0493164,0.0997314,0.1050415,0.196167,0.1668701,0.2886353
			l10.184021,15.4636841c0.2597656,0.4598999,0.8430786,0.6220703,1.3029175,0.3623657s0.6220703-0.8430786,0.3623657-1.3029175
			L41.3319092,77.9764404z"/>
		<path d="M28.0648804,69.9326782c-0.0032959-0.5916138,0.0803833-1.1681519,0.2422485-1.717041
			l-4.5914307-0.2158203C23.6046753,67.9926147,23.4933472,67.9926758,23.3823242,68L4.8983765,68.8183594
			c-0.5281372-0.0050049-0.9602661,0.4190674-0.965271,0.9471436c-0.0050049,0.5281372,0.4190674,0.9602661,0.9471436,0.965271
			L23.3403931,72c0.1108398,0.0093994,0.222168,0.0115356,0.333313,0.0064697l4.7125244-0.182312
			C28.1820679,71.2203979,28.0684204,70.5847168,28.0648804,69.9326782z"/>
		<path d="M49.4424438,44.4222412c-0.454834-0.2683716-1.0411377-0.1171875-1.3095093,0.3376465
			L37.6584473,60.0283813c-0.0635376,0.0912476-0.1210938,0.1866455-0.1722412,0.2854004l-1.9850464,3.9328003
			c1.0271606,0.2778931,1.9711304,0.8203735,2.7377319,1.6015625c0.1692505,0.1724854,0.322937,0.355835,0.4688721,0.5440063
			l2.605896-3.8200684c0.0617065-0.0925903,0.1173706-0.1890259,0.1665649-0.2888184l8.2998657-16.5515137
			C50.0484619,45.2769165,49.8973389,44.6906128,49.4424438,44.4222412z"/>
	</g>
	<path d="M36.974781,70.0606308c0.0091286,1.6324615-1.306469,2.9234238-2.9384651,2.8834457
		c-1.632-0.0399704-2.9623928-1.395752-2.9715195-3.0282135s1.306469-2.9234238,2.9384689-2.8834457
		C35.6352615,67.0723877,36.9656563,68.4281693,36.974781,70.0606308z"/>
</g>
</svg>
