<?xml version="1.0" encoding="utf-8"?>
<!-- Generator: Adobe Illustrator 20.0.0, SVG Export Plug-In . SVG Version: 6.00 Build 0)  -->
<svg version="1.1" xmlns="http://www.w3.org/2000/svg" xmlns:xlink="http://www.w3.org/1999/xlink" x="0px" y="0px"
	 viewBox="0 0 120 120" enable-background="new 0 0 120 120" xml:space="preserve">
<title>Gears</title>
<g>
	<path d="M79.5126953,53.4401855l-9.1600342-4.8764648c0.3152466-2.0775757,0.3570557-4.203186,0.1210327-6.3398438
		l9.3271484-4.5310669c0.9107056-0.4472656,1.3164062-1.4903564,0.9490967-2.4254761l-2.7218628-6.9293213
		c-0.3592529-0.9146729-1.3839111-1.4171143-2.34198-1.1327515l-9.9199829,3.0341187
		c-1.2805176-1.7241211-2.7578125-3.2530518-4.4014893-4.5635376l3.3951416-9.8057861
		c0.3190918-0.9454346-0.1395264-1.9931641-1.0462646-2.3816528l-6.8306274-2.9776611
		c-0.4667358-0.1984863-0.9852905-0.2045288-1.4588623-0.0184937c-0.4348145,0.1707764-0.7879639,0.4838867-0.9867554,0.8778076
		l-4.8735962,9.1611328c-2.0807495-0.3115234-4.2092285-0.3544922-6.3439941-0.1192627l-4.5269165-9.3287964
		c-0.4387207-0.8952026-1.5021973-1.3164673-2.4291992-0.9523315l-6.9271851,2.7210083
		c-0.9269409,0.3641357-1.4193726,1.3965454-1.1303101,2.3482056l3.0320435,9.9207153
		c-1.7262573,1.2813721-3.255127,2.758667-4.5675659,4.4030151l-9.7960205-3.394165
		c-0.4316406-0.1509399-0.9076538-0.1383667-1.3383179,0.0308228c-0.4737549,0.1860962-0.8514404,0.5441895-1.0556641,1.0085449
		l-2.9703369,6.8251953c-0.3959351,0.9119873-0.0196533,1.989624,0.8585205,2.4553833l9.1595459,4.8696289
		c-0.31427,2.0794067-0.3552246,4.2070923-0.1192017,6.3439331l-9.3334351,4.5333252
		c-0.8915405,0.4421387-1.3057861,1.505249-0.9464722,2.4199219l2.7218628,6.9292603
		c0.3632812,0.9248657,1.3903198,1.421875,2.34198,1.1327515l9.923645-3.0307617
		c1.281311,1.7260132,2.7594604,3.257019,4.4050293,4.5667725l-3.4015503,9.8013306
		c-0.319397,0.9384766,0.1362915,1.9849243,1.0439453,2.3873291l6.8237305,2.9730835
		c0.4606934,0.2008667,0.9959106,0.2075195,1.4654541,0.0230713c0.4206543-0.1652222,0.772522-0.4754639,0.9899902-0.8814087
		l4.8758545-9.1621704c2.0786743,0.3123779,4.2071533,0.3554688,6.3410645,0.118103l4.5289917,9.3279419
		c0.4358521,0.8939819,1.4993286,1.3153076,2.4221802,0.9528198l6.9313354-2.7226562
		c0.927002-0.3641357,1.4258423-1.3919067,1.1348267-2.3428345l-3.0341187-9.9199219
		c1.7241821-1.2805786,3.255188-2.758667,4.5654907-4.4022827l9.7972412,3.3912964
		c0.4316406,0.1509399,0.9083252,0.140564,1.335022-0.0270386c0.4779053-0.1877441,0.8547974-0.5479126,1.0581665-1.0143433
		l2.9720459-6.8209229C80.7663574,54.9815674,80.3901367,53.9039307,79.5126953,53.4401855z M50.2252808,54.3037109
		c-4.6161499,1.8132935-9.8342285-0.4615479-11.647522-5.0776978c-1.8148804-4.6203613,0.4616089-9.8342896,5.0777588-11.647522
		c4.6182861-1.8140869,9.8326416,0.4573975,11.647522,5.0777588C57.116272,47.2723999,54.8435669,52.4896851,50.2252808,54.3037109z
		 M109.8484497,82.8881226l-6.7451172-0.5235596c-0.3662109-1.3519287-0.8983765-2.6322632-1.5836792-3.8197021l4.3991089-5.1428223
		c0.4190674-0.4978027,0.3905029-1.243103-0.0672607-1.6951904l-3.4363403-3.4362183
		c-0.2360229-0.2316895-0.5493164-0.3590698-0.8811646-0.3590698c-0.3046875,0-0.593689,0.105896-0.8082886,0.2976074
		l-5.1428223,4.3989258c-1.1887207-0.6852417-2.47052-1.218811-3.8224487-1.585022l-0.5235596-6.7407837
		C91.184021,63.6342773,90.638916,63.125,89.9893799,63.125h-4.8537598c-0.6495361,0-1.1946411,0.5092773-1.2460327,1.1558838
		l-0.5250244,6.7435913c-1.3533936,0.3662109-2.633728,0.8983765-3.8225098,1.5836182l-5.1370239-4.3961182
		c-0.2260742-0.194519-0.5180054-0.300415-0.8197632-0.300415c-0.3319702,0-0.6466064,0.1273804-0.8812866,0.3605347
		l-3.430481,3.4347534c-0.4577637,0.4592285-0.4863281,1.203125-0.0643311,1.6951904l4.3989258,5.1400146
		c-0.6865845,1.1873169-1.21875,2.4691162-1.585022,3.8225098l-6.746521,0.5263062
		C64.6299438,82.9467163,64.125,83.4932251,64.125,84.1341553v4.8552246c0,0.6480713,0.5049438,1.1945801,1.1515503,1.2460327
		l6.746521,0.5264893c0.366272,1.3532715,0.8984375,2.6350098,1.585022,3.8224487l-4.4018555,5.1385498
		c-0.4176025,0.4935303-0.3905029,1.2374268,0.0644531,1.6981201l3.4332886,3.4317627
		c0.2317505,0.2317505,0.5550537,0.3634644,0.8840332,0.3634644c0.2947388,0,0.5823364-0.1044312,0.8111572-0.2990112
		l5.1443481-4.3990479c1.1873169,0.6853027,2.4691162,1.2189331,3.8210449,1.5836792l0.5250244,6.7421875
		C83.940979,109.4906616,84.486084,110,85.1326904,110h4.8566895c0.6495361,0,1.1973877-0.5049438,1.2474976-1.1515503
		l0.5235596-6.7451172c1.3519287-0.3662109,2.633728-0.8983765,3.8209839-1.5836792l5.1385498,4.3946533
		c0.2260742,0.1945801,0.5178833,0.3019409,0.8168335,0.3019409c0.3348999,0,0.6495361-0.1287842,0.8842163-0.3634644
		l3.430481-3.4317627c0.4577637-0.4606934,0.4863281-1.2045898,0.0643311-1.6953125l-4.397644-5.1442871
		c0.6867676-1.1859741,1.2189331-2.4662476,1.585144-3.819519l6.7421875-0.5264893
		C110.5050049,90.1810303,111,89.6445923,111,88.9893799v-4.8552246C111,83.4932251,110.4978027,82.9439087,109.8484497,82.8881226z
		 M87.5624847,92.0625c-3.0359955,0-5.4999924-2.4639893-5.4999924-5.5c0-3.0387573,2.4639969-5.5,5.4999924-5.5
		c3.0373688,0,5.5,2.4612427,5.5,5.5C93.0624847,89.5985107,90.5998535,92.0625,87.5624847,92.0625z"/>
</g>
</svg>
