<?xml version="1.0" encoding="utf-8"?>
<!-- Generator: Adobe Illustrator 20.0.0, SVG Export Plug-In . SVG Version: 6.00 Build 0)  -->
<svg version="1.1" xmlns="http://www.w3.org/2000/svg" xmlns:xlink="http://www.w3.org/1999/xlink" x="0px" y="0px"
	 viewBox="0 0 120 120" enable-background="new 0 0 120 120" xml:space="preserve">
<title>Book</title>
<g>
	<path d="M37,94h-6c-3.3137207,0-6-2.6862793-6-6V13.5l0.0239868,0.0259399C25.2663574,10.4344482,27.8463135,8,31,8
		h60v3H31c-1.6542969,0-3,1.3457031-3,3s1.3457031,3,3,3h62v3v3H46c-4.4882812,0-8.3046875,3.3730469-8.9101562,7.7709961
		C37.03125,31.0058594,37,31.2504883,37,31.5V94z M46,35c-1.6542969,0-3-1.3457031-3-3s1.3457031-3,3-3h60v-3H46
		c-3.1536865,0-5.7336426,2.4344482-5.9760132,5.5259399L40,31.5V106c0,3.3137207,2.6862793,6,6,6h62V38v-3H46z"/>
</g>
</svg>
