<?xml version="1.0" encoding="utf-8"?>
<!-- Generator: Adobe Illustrator 20.0.0, SVG Export Plug-In . SVG Version: 6.00 Build 0)  -->
<svg version="1.1" xmlns="http://www.w3.org/2000/svg" xmlns:xlink="http://www.w3.org/1999/xlink" x="0px" y="0px"
	 viewBox="0 0 120 120" enable-background="new 0 0 120 120" xml:space="preserve">
<title>City</title>
<g>
	<path d="M61,46h-3v-4h3V46z M23,52h-3v4h3V52z M29,56h-3v-4h3V56z M23,64h-3v-4h3V64z M29,64h-3v-4h3V64z M23,72h-3
		v-4h3V72z M29,72h-3v-4h3V72z M23,80h-3v-4h3V80z M29,80h-3v-4h3V80z M23,88h-3v-4h3V88z M29,88h-3v-4h3V88z M23,96h-3v-4h3V96z
		 M29,96h-3v-4h3V96z M23,104h-3v-4h3V104z M29,104h-3v-4h3V104z M67,42h-3v4h3V42z M73,42h-3v4h3V42z M61,50h-3v4h3V50z M67,50h-3
		v4h3V50z M73,50h-3v4h3V50z M61,58h-3v4h3V58z M67,58h-3v4h3V58z M73,58h-3v4h3V58z M61,66h-3v4h3V66z M67,66h-3v4h3V66z M73,66h-3
		v4h3V66z M61,74h-3v4h3V74z M67,74h-3v4h3V74z M73,74h-3v4h3V74z M61,82h-3v4h3V82z M67,82h-3v4h3V82z M73,82h-3v4h3V82z M61,90h-3
		v4h3V90z M67,90h-3v4h3V90z M73,90h-3v4h3V90z M61,98h-3v4h3V98z M67,98h-3v4h3V98z M73,98h-3v4h3V98z M114,109v3H6v-3h5V48v-2h15
		V28v-2L56.9335938,8v27H66v-5h8v5h5v21.6190186l12-12.5714111V33h3v11.0476074l12,12.5714111V97v2v10H114z M32,49H17v60h15V49z
		 M49,102H35v7h14V102z M49,94H35v5h14V94z M49,86H35v5h14V86z M49,78H35v5h14V78z M49,70H35v5h14V70z M49,62H35v5h14V62z M49,54H35
		v5h14V54z M54,13.2167969L32,25.9799194V46h3v5h14v-5H35v-3h14v-5H35v-3h15h1h3V13.2167969z M76,38H55v71h21V59V38z M83,57h19
		l-9.5-10L83,57z M96,105h-3v4h3V105z M103,99H82v10h8v-7h9v7h4V99z M103,96V60H82v36h5V63h3v33h5V63h3v33H103z M88,102h-3v4h3V102z
		 M51,27H35v3h16V27z"/>
</g>
</svg>
