<?xml version="1.0" encoding="utf-8"?>
<!-- Generator: Adobe Illustrator 20.0.0, SVG Export Plug-In . SVG Version: 6.00 Build 0)  -->
<svg version="1.1" xmlns="http://www.w3.org/2000/svg" xmlns:xlink="http://www.w3.org/1999/xlink" x="0px" y="0px"
	 viewBox="0 0 120 120" enable-background="new 0 0 120 120" xml:space="preserve">
<title>Tools</title>
<g>
	<path d="M49.783493,38.5499115c-4.0793381,3.1613503-3.4224014,3.6892014-3.4224014,3.6892014
		s-7.173439-2.9089241-9.3914719-2.7516632c-2.2152176,0.1630135-4.6830902,2.4034996-5.9268723,4.4418755
		c-1.2465992,2.0438385-4.3349533,5.6039505-4.3349533,5.6039505s-2.1141586,1.5441628-2.9452076,1.6059761
		c-0.8310471,0.0618095-1.5217361,0.1796875-2.6110744-0.3481636c-1.0865479-0.5335999-2.9901142-2.9313507-3.8548641-4.1776619
		c-0.8619385-1.2523499-1.892333-3.2289124-2.2292452-4.037365c-0.3341064-0.8141975,0.6710186-2.2798729,0.6710186-2.2798729
		s3.5011015-3.0380135,5.0256262-3.7061615c1.5245552-0.6569405,4.4332504-0.3145256,4.4332504-0.3145256
		s2.6531944-1.864151,3.9587307-3.0713654c1.3055382-1.2072105,1.3195686-3.150135,1.2213001-4.0261478
		c-0.1656284-1.4935627,2.2573376-4.5821762,3.4758472-5.6487999C36.0655746,21.5917244,40.75,18.25,50.3097801,16.1338253
		c2.3274155-0.5152025,5.9524231-0.9958439,8.3955231-0.9788256c7.5908089,0.0528774,13.9183388,2.1693621,13.9183388,2.1693621
		l0.8647995,0.9599628c0,0-6.5138855,0.2248249-12.4659996,1.6059761c-6.3761749,1.4826374-10.6829224,5.716362-10.6829224,5.716362
		s0.90131,3.1895256,1.061161,5.4075871c0.1572647,2.2123127,2.8525772,4.8064251,2.8525772,4.8064251
		S53.0152817,36.0397491,49.783493,38.5499115z M106.8821411,36.963501c-0.0422363-0.05896-0.1011963-0.1124268-0.1768188-0.1489258
		c-0.2078247-0.1204834-0.4634399-0.0897217-0.6543579,0.0563354l-12.1063232,9.2595215
		c-0.4746704,0.3676758-1.1117554,0.3846436-1.569458,0.0419312l-5.6740723-4.1607056
		c-0.1124268-0.0787354-0.1912231-0.1543579-0.2584839-0.2443237c-0.0730591-0.095459-0.1178589-0.1880493-0.1627197-0.2835083
		l-2.7122803-6.8168945c-0.2133179-0.5336304-0.0336304-1.1569214,0.4381714-1.5245972l12.1117554-9.2595215
		c0.1912231-0.1460571,0.2866821-0.395874,0.2191162-0.6149902c-0.0112305-0.0813599-0.0419922-0.1486206-0.0897217-0.2133179
		c-0.095459-0.1121216-0.2219849-0.1963501-0.3734741-0.2161865c-1.1008301-0.1569214-2.2332153-0.225708-3.3722534-0.2120972
		c-4.6685791,0.0560303-9.4500732,1.4971313-12.6369019,3.932312c-3.5548706,2.7178955-5.71698,6.9459229-5.6693115,11.3665771
		c0.0205078,1.9055786,0.5073242,3.8442993,1.3235474,5.7158813c-0.0233154,0.1315918-0.0493774,0.2582397-0.0817261,0.3725586
		c-0.2975464,1.032959-1.8081055,2.9281616-2.6869507,3.9726562l-2.1553955,1.8487549
		c2.3162842,2.2769165,5.1592407,5.1131592,7.8582153,7.8340454l2.1726685-2.5263062
		c0.541626-0.4827271,2.015625-1.7011719,3.1555786-1.760376c0.380249-0.0210571,0.7401733,0.0041504,1.1132202,0.0465088
		c1.9678955,0.8858032,4.0495605,1.3583374,6.1051636,1.3557739c2.9285278-0.0036621,5.8034668-1.0933228,8.2180786-2.9407349
		c3.9473877-3.0181274,7.0750732-8.8383179,7.7768555-14.4649658
		C107.0169678,37.2216187,106.9747314,37.0842285,106.8821411,36.963501z M66.9395752,71.0558472l-25.0426025,29.1182251
		c-3.8183594,3.821167-10.0203857,3.821167-13.8414917,0c-3.8268433-3.8237305-3.8240356-10.026001-0.0056763-13.847168
		l30.1313477-25.8446655C61.8987427,64.8877563,65.0004883,68.6061401,66.9395752,71.0558472z M37.8327026,90.1669312
		c-1.2849121-1.2921143-3.373291-1.2872314-4.6654053-0.0024414c-1.2873535,1.2921143-1.2921143,3.3781128,0,4.6726685
		c1.2921143,1.2850342,3.3780518,1.2850342,4.6654053-0.0024414C39.1224365,93.5426025,39.1224365,91.4519653,37.8327026,90.1669312
		z M106.0903702,91.8495407c-0.8676758-1.1902542-12.0025482-13.6674652-17.2557526-19.2153549
		c-5.4130478-5.7160721-14.5207596-14.9419479-20.4280243-20.7425499c-3.6472244-3.5770721-8.5465126-9.276474-11.5675621-12.870224
		c-0.6063385,0.2472496-1.8584023,0.8984375-4.0146523,2.566227c-4.0796242,3.167099-3.4226837,3.6891975-3.4226837,3.6891975
		s-0.151516-0.0618095-0.3958893-0.1572609c6.2499619,7.2323494,20.0266724,23.292099,22.6883469,27.3070374
		c3.4534531,5.2164001,16.0034027,20.3550034,17.6936188,22.5900269c1.9989853,2.6559219,4.8656464,6.5584488,7.1596069,7.3277969
		c1.9090042,0.6345139,3.368927,0.651474,6.4152756-2.2683716C108.4794922,94.7808838,106.958046,93.0400772,106.0903702,91.8495407
		z"/>
</g>
</svg>
