<?xml version="1.0" encoding="utf-8"?>
<!-- Generator: Adobe Illustrator 18.0.0, SVG Export Plug-In . SVG Version: 6.00 Build 0)  -->
<!DOCTYPE svg PUBLIC "-//W3C//DTD SVG 1.1//EN" "http://www.w3.org/Graphics/SVG/1.1/DTD/svg11.dtd">
<svg version="1.1" id="Layer_1" xmlns="http://www.w3.org/2000/svg" xmlns:xlink="http://www.w3.org/1999/xlink" x="0px" y="0px"
	 viewBox="0 0 792 612" enable-background="new 0 0 792 612" xml:space="preserve">
<g>
	<path d="M90,0v286.9h106.9c-33.6-65.1-47.2-128.8-11.3-172.1c28.1-34,59-41.8,95.6-41.8
		c46.7,0,92.3,24.6,108.3,36.8l6.5,5l6.5-5c15.9-12.3,61.6-33.3,108.3-33.3c36.6,0,67.6,4.1,95.6,38.2
		c95,115.9-156,371.7-210.4,420.8C364.2,506.8,265.1,406.9,207.4,306H90v306h612V0H90z"/>
	<path d="M510.7,248.6c-21.1,0-38.2,17.1-38.2,38.2h-68.1l-18.1-144.6c-0.6-4.7-4.7-8.3-9.5-8.4
		c-4.7,0-8.7,3.4-9.5,8.1l-28.8,221.4l-19.1-57.2c0,0-6.3-19.3-19.1-19.3H196.9c3.3,6.4,6.8,12.7,10.5,19.1h93l29.4,89.6
		c1.5,3.7,5,6,8.9,6c0.4,0,0.7,0,1.1-0.1c4.3-0.5,7.7-3.8,8.4-8l28.8-183.1l9.6,87.3c0.6,4.8,4.7,8.4,9.5,8.4h81.8
		c6.6,11.4,18.8,19.1,32.9,19.1c21.1,0,38.3-17.1,38.3-38.2C549,265.8,531.9,248.6,510.7,248.6z"/>
</g>
</svg>
