<?xml version="1.0" encoding="utf-8"?>
<!-- Generator: Adobe Illustrator 18.0.0, SVG Export Plug-In . SVG Version: 6.00 Build 0)  -->
<!DOCTYPE svg PUBLIC "-//W3C//DTD SVG 1.1//EN" "http://www.w3.org/Graphics/SVG/1.1/DTD/svg11.dtd">
<svg version="1.1" id="Layer_1" xmlns="http://www.w3.org/2000/svg" xmlns:xlink="http://www.w3.org/1999/xlink" x="0px" y="0px"
	 viewBox="0 0 792 612" enable-background="new 0 0 792 612" xml:space="preserve">
<g>
	<path d="M415.1,172.1c36.4,2.8,59.1,37.5,66.2,82.7l10.3,70.3h-76.5v38.2H396v-38.2h-76.5l10.3-70.3
		c7.1-45.2,29.8-80,66.2-82.7V153H281.2v248.6h248.6V153H415.1V172.1z"/>
	<path d="M90,0v612h133.9v-95.6h363.4V612H702V0H90z M587.2,497.2H223.9v-19.1h363.4V497.2z M587.2,459H223.9
		l38.2-57.4V153h-38.2L415.1,38.2L587.2,153H549v248.6L587.2,459z"/>
</g>
</svg>
