<?xml version="1.0" encoding="utf-8"?>
<!-- Generator: Adobe Illustrator 18.0.0, SVG Export Plug-In . SVG Version: 6.00 Build 0)  -->
<!DOCTYPE svg PUBLIC "-//W3C//DTD SVG 1.1//EN" "http://www.w3.org/Graphics/SVG/1.1/DTD/svg11.dtd">
<svg version="1.1" id="Layer_1" xmlns="http://www.w3.org/2000/svg" xmlns:xlink="http://www.w3.org/1999/xlink" x="0px" y="0px"
	 viewBox="0 0 792 612" enable-background="new 0 0 792 612" xml:space="preserve">
<g>
	<path d="M90,0v612h612V0H90z M422.5,534.3c-4.6-53.1,19.6-101.4,60-142.3c40.4-40.9,88.5-65.7,141.7-61.7
		L422.5,534.3z M636.6,127.4l-94.1,95.2c-7.4,7.5-19.6,7.5-27,0.2l-13.6-13.4l-40.3,40.8l40.8,40.3l-53.8,54.4l27.2,26.9l-13.5,13.6
		L435,358.4l-53.8,54.4l-40.8-40.3l-40.3,40.8l13.6,13.4c7.5,7.4,7.5,19.6,0.2,27L219.7,549c-7.4,7.5-19.6,7.5-27,0.2L153,509.9
		c-7.5-7.4-7.5-19.6-0.2-27l94.1-95.2c7.4-7.5,19.6-7.5,27-0.2l12.5,12.3l40.3-40.8L286,318.7c-13.6-13.4-13.5-40.7-0.3-54.1
		l67.2-68c13.7-13.8,40.7-13.5,54.1-0.3l40.8,40.3l40.3-40.8l-12.5-12.3c-7.5-7.4-7.5-19.6-0.2-27l94.1-95.2
		c7.4-7.5,19.6-7.5,27-0.2l39.7,39.2C643.9,107.7,644,119.9,636.6,127.4z"/>
</g>
</svg>
