<?xml version="1.0" encoding="utf-8"?>
<!-- Generator: Adobe Illustrator 18.0.0, SVG Export Plug-In . SVG Version: 6.00 Build 0)  -->
<!DOCTYPE svg PUBLIC "-//W3C//DTD SVG 1.1//EN" "http://www.w3.org/Graphics/SVG/1.1/DTD/svg11.dtd">
<svg version="1.1" id="Layer_1" xmlns="http://www.w3.org/2000/svg" xmlns:xlink="http://www.w3.org/1999/xlink" x="0px" y="0px"
	 viewBox="0 0 792 612" enable-background="new 0 0 792 612" xml:space="preserve">
<g>
	<path d="M90,0v612h612V0H90z M147.4,535.5l57.4-325.1h114.8v-76.5c0-42.3,34.3-76.5,76.5-76.5s76.5,34.2,76.5,76.5
		v76.5h114.8l57.4,325.1H147.4z"/>
	<path d="M453.4,133.9c0-31.6-25.7-57.4-57.4-57.4s-57.4,25.7-57.4,57.4v76.5h114.8V133.9z"/>
	<path d="M535.4,427.2c-7.9-6.9-7.7-22.3-18.5-22.3c-14.4,0-15.6,20.8-30,20.8c-6.5,0-12-5.1-18.5-5.1
		c-5.8,0-13.9,3.3-13.9,9c0,5,0,10,0,15c0,12.7-14.6,15.2-14.6,27.8c0,5.2,5.8,7.1,5.8,12.3c0,17-30,15.1-30.9,31.6h204.1
		l-12.7-76.5c-10.9,0-42-1.8-43.8-1.8C552.6,438.1,543.2,434,535.4,427.2z"/>
	<path d="M441.6,318.5c18.4-10,11.7-50.8,11.7-50.8v-38.2H338.6h-0.2H223.9l-49.7,286.9h175.9c0-0.1,1.9,0,3.7,0h3.7
		c0-16.3-38.6-11.7-43.5-21.4c-12.2-24.3,20.7-30.3,20.7-49.7c0-4.8-2.5-14.5-10-15.3c-10.5-1.1-13.2,4.7-23.8,4.7
		c-6.5,0-13.1-4.2-13.1-10.7c0-11.6,9.2-16.9,9.2-28.5c0-7.5-3.1-11.8-3.1-19.2c0-10.2,7.5-19.3,17.7-19.3c9.6,0,13.8,7.9,18.5,16.1
		c3.8,7,10.5,9.2,18.4,9.2c14.6,0,23.8-18.3,23.8-29.2c0-7.5,5.6-14.6,13.1-14.6c10.4,0,14.3,10.8,24.6,10.8
		C427.2,349.3,426.6,326.6,441.6,318.5z"/>
</g>
</svg>
