<?xml version="1.0" encoding="utf-8"?>
<!-- Generator: Adobe Illustrator 18.0.0, SVG Export Plug-In . SVG Version: 6.00 Build 0)  -->
<!DOCTYPE svg PUBLIC "-//W3C//DTD SVG 1.1//EN" "http://www.w3.org/Graphics/SVG/1.1/DTD/svg11.dtd">
<svg version="1.1" id="Layer_1" xmlns="http://www.w3.org/2000/svg" xmlns:xlink="http://www.w3.org/1999/xlink" x="0px" y="0px"
	 viewBox="0 0 792 612" enable-background="new 0 0 792 612" xml:space="preserve">
<g>
	<path d="M90,0v612h612V0H90z M368.8,76.6c59.5-2.1,119.6,18.6,164.9,62.6s66.6,102.5,64.4,160.3h-23.2
		c2.2-52-16.9-104.6-57.7-144.3s-95-58.2-148.4-56.1L368.8,76.6L368.8,76.6z M467.9,203.2c-27-26.2-63.1-38.1-98.4-35.9v-22.6
		c41.3-2.2,83.4,11.9,114.9,42.5s45.9,71.5,43.7,111.6h-23.3C507.1,264.5,494.9,229.4,467.9,203.2z M418.1,251.6
		c-13.2-12.8-31.2-17.8-48.3-15.4v-22.6c23.1-2.3,47.1,4.8,64.8,22s25,40.5,22.6,63h-23.3C436.4,281.9,431.3,264.4,418.1,251.6z
		 M90,459h153.7l-9.8,19.1H90V459z M223.9,554.6l43.3-95.6c15.2,11.2,31.5,20.6,48.7,28.1l41.8,67.5H223.9z M253.8,417.8
		c-60.5-60.5-88-149.3-68.2-226.5l140.6,140.6l31.1-31.1c-1.6-6.3-0.3-13.3,4.7-18.2c7.5-7.5,19.6-7.5,27,0c7.5,7.5,7.5,19.6,0,27
		c-5,5-11.9,6.3-18.2,4.7l-31.1,31.1l132.8,132.8C395.2,497.9,314.3,478.2,253.8,417.8z M702,478.1H503.3L483.7,459H702V478.1z"/>
</g>
</svg>
