<?xml version="1.0" encoding="utf-8"?>
<!-- Generator: Adobe Illustrator 20.0.0, SVG Export Plug-In . SVG Version: 6.00 Build 0)  -->
<svg version="1.1" xmlns="http://www.w3.org/2000/svg" xmlns:xlink="http://www.w3.org/1999/xlink" x="0px" y="0px"
	 viewBox="0 0 120 120" enable-background="new 0 0 120 120" xml:space="preserve">
	 <title>Graph</title>
<g>
	<path d="M112,108v3h-10h-3v5h-3v-5h-9H76h-1v5h-3v-5H61H51v5h-3v-5H35h-8v5h-3v-5H14h-3v-3V96H7v-3h4V72H7v-3h4V48
		H7v-3h4V24H7v-3h4V9h3v99h21V89h15v19h11V74h15v34h11V52h15v56H112z M102,11H83l8.5162354,8.5162354L59,51.1598511L45,43
		L19.2921143,70.9403687l2.6448975,2.6448975l23.8778687-25.374939l13.5385132,7.8137207l34.7766113-33.894043L102,30V11z"/>
</g>
</svg>
