<?xml version="1.0" encoding="utf-8"?>
<!-- Generator: Adobe Illustrator 20.0.0, SVG Export Plug-In . SVG Version: 6.00 Build 0)  -->
<svg version="1.1" xmlns="http://www.w3.org/2000/svg" xmlns:xlink="http://www.w3.org/1999/xlink" x="0px" y="0px"
	 viewBox="0 0 120 120" enable-background="new 0 0 120 120" xml:space="preserve">
	 <title>Layers</title>
<g>
	<path d="M107.6289825,37.2103119c1.4646912,0.8790627,1.4646912,2.295002,0,3.1740646L61.3702354,68.1431274
		c-0.9887505,0.5981216-2.984375,0.5981216-3.9731255,0L11.1383591,40.3843765
		c-1.4587498-0.8790627-1.4587498-2.3071899,0-3.1740646L57.39711,9.4515629c0.9887505-0.5981255,2.984375-0.5981255,3.9731255,0
		L107.6289825,37.2103119z"/>
	<path d="M107.6289825,80.7896881L61.3702354,108.548439c-0.9887505,0.5981216-2.984375,0.5981216-3.9731255,0
		L11.1383591,80.7896881c-1.4587498-0.8728104-1.4587498-2.3012543,0-3.1740646l10.2843761-6.1765594L57.39711,93.0271912
		c0.9887505,0.5981216,2.984375,0.5981216,3.9731255,0L97.338356,71.4449997l10.2906265,6.1768723
		C109.0936737,78.5006256,109.0936737,79.9168777,107.6289825,80.7896881z M107.6289825,57.4190636L97.338356,51.2425003
		l-35.9681206,21.581871c-0.9887505,0.5981293-2.984375,0.5981293-3.9731255,0L21.4227352,51.2362518l-10.2843761,6.1768723
		c-1.4587498,0.8728142-1.4587498,2.3009377,0,3.1737518L57.39711,88.3456268c0.9887505,0.5981216,2.984375,0.5981216,3.9731255,0
		l46.2587471-27.7587509C109.0936737,59.7140617,109.0936737,58.2981262,107.6289825,57.4190636z M61.3702354,9.4515629
		c-0.9887505-0.5981255-2.984375-0.5981255-3.9731255,0l-46.2587509,27.758749c-1.4587498,0.8668747-1.4587498,2.295002,0,3.1740646
		L57.39711,68.1431274c0.9887505,0.5981216,2.984375,0.5981216,3.9731255,0l46.2587471-27.7587509
		c1.4646912-0.8790627,1.4646912-2.295002,0-3.1740646L61.3702354,9.4515629z"/>
</g>
</svg>
