<?xml version="1.0" encoding="utf-8"?>
<!-- Generator: Adobe Illustrator 20.0.0, SVG Export Plug-In . SVG Version: 6.00 Build 0)  -->
<svg version="1.1" xmlns="http://www.w3.org/2000/svg" xmlns:xlink="http://www.w3.org/1999/xlink" x="0px" y="0px"
	 viewBox="0 0 120 120" enable-background="new 0 0 120 120" xml:space="preserve">
<title>House</title>
<g>
	<path d="M76.8930435,91h-0.786087C75.4955978,91,75,91.4955978,75,92.1069565v0.786087
		C75,93.5044022,75.4955978,94,76.1069565,94h0.786087C77.5044022,94,78,93.5044022,78,92.8930435v-0.786087
		C78,91.4955978,77.5044022,91,76.8930435,91z"/>
	<rect fill="none" width="120" height="120"/>
	<path d="M104,109V57H17v52H6v3h108v-3H104z M46,90H28V70h18V90z M92,109H71V74h21V109z M17,54H9L60.5,9
		l22.5576782,19.7105713V14h11.7692261v24.9943848L112,54h-8H17z"/>
</g>
</svg>
