<?xml version="1.0" encoding="utf-8"?>
<!-- Generator: Adobe Illustrator 18.0.0, SVG Export Plug-In . SVG Version: 6.00 Build 0)  -->
<!DOCTYPE svg PUBLIC "-//W3C//DTD SVG 1.1//EN" "http://www.w3.org/Graphics/SVG/1.1/DTD/svg11.dtd">
<svg version="1.1" id="Layer_1" xmlns="http://www.w3.org/2000/svg" xmlns:xlink="http://www.w3.org/1999/xlink" x="0px" y="0px"
	 viewBox="0 0 792 612" enable-background="new 0 0 792 612" xml:space="preserve">
<g>
	<rect x="166.5" y="363.4" width="267.8" height="19.1"/>
	<rect x="166.5" y="401.6" width="267.8" height="19.1"/>
	<rect x="166.5" y="439.9" width="267.8" height="19.1"/>
	<path d="M90,0v612h612V0H90z M453.4,573.8h-19.1v-57.4H166.5v57.4h-19.1v-57.4h-38.2l19.1-57.4h19.1v-19.1h-19.1
		v-19.1h19.1v-19.1h-19.1v-19.1h19.1v-19.1h-19.1v-19.1h19.1h19.1h267.8h19.1h19.1v19.1h-19.1v19.1h19.1v19.1h-19.1v19.1h19.1v19.1
		h-19.1V459h19.1l19.1,57.4h-38.2V573.8z M702,459h-38.2v76.5h-38.2V459h-134l76.5-133.9h-57.4l25.5-38.2H90v-19.1h124.3v-38.2
		h-47.8l29.4-51h-22.1l30.9-44.6h-19.1l38.2-57.3L262,134h-19l30.9,44.6h-22.1l29.4,51h-47.8v38.2h172.1v-38.2h-47.8l29.4-51H365
		l30.9-44.6h-19.1L415,76.7l38.2,57.3h-19.1l30.9,44.6h-22.1l29.4,51h-47.8v38.2H549l38.2-57.4H549l95.6-153l57.4,84V459z"/>
</g>
</svg>
