<?xml version="1.0" encoding="utf-8"?>
<!-- Generator: Adobe Illustrator 20.0.0, SVG Export Plug-In . SVG Version: 6.00 Build 0)  -->
<svg version="1.1" xmlns="http://www.w3.org/2000/svg" xmlns:xlink="http://www.w3.org/1999/xlink" x="0px" y="0px"
	 viewBox="0 0 120 120" enable-background="new 0 0 120 120" xml:space="preserve">
<title>Shield</title>
<g>
	<path d="M99.9423218,65.3685913c-0.1453857-1.8857422-1.6008301-5.2079468-3.1428833-8.7243042
		c-2.1370239-4.8701172-4.9578857-10.3877563-5.7434082-15.7105103c-1.2834473-8.6810303,3.7764893-18.4363403,5.6355591-21.9016113
		l-9.2624512-8.4150391c-2.1234741,1.9100952-6.8779907,5.4828491-15.2536011,5.4828491
		C64.9198608,16.0999756,61.2987671,13.0422974,59.5,11c-1.8010864,2.0422974-5.4603882,5.0999756-12.7180176,5.0999756
		c-8.3751831,0-13.130127-3.5727539-15.2496948-5.4828491l-9.2682495,8.4150391
		c1.859436,3.465271,6.9174805,13.2205811,5.6355591,21.9035034c-0.7851562,5.3208618-3.6063843,10.8404541-5.7410889,15.7102051
		c-1.5440063,3.5166626-1.9468384,6.8389282-2.0922241,8.7227173c-0.7646484,9.8040161,5.078186,22.6511841,17.9384766,27.1698608
		c11.3878174,4.0053711,17.6959839,11.5744019,20.6710815,16.3443604h1.5532837
		c2.9732056-4.7641602,9.2832642-12.3200684,20.7221069-16.3443604
		C93.8150635,88.0197754,100.7084961,75.1726074,99.9423218,65.3685913z M79.9570312,89.7080078
		c-10.5131836,3.6987305-16.9643555,10.2241211-20.503418,14.9941406
		c-3.5395508-4.7773438-9.9833984-11.3110352-20.453125-14.9936523c-11.2680664-3.9589844-16.6240234-15.375-15.9433594-24.1064453
		c0.2197266-2.8496094,0.8413086-5.4560547,1.8486328-7.75c0.3549805-0.8100586,0.7285156-1.6362305,1.1079102-2.4770508
		c1.9404297-4.293457,4.1391602-9.159668,4.8535156-14.0014648c0.8979492-6.0791016-0.7431641-13.3613281-4.8789062-21.6708984
		l5.6704102-5.1484375c4.2114258,2.9829102,9.3847656,4.5458984,15.1235352,4.5458984
		c5.1176758,0,9.3808594-1.3354492,12.7158203-3.9760742c3.3291016,2.6411133,7.5791016,3.9760742,12.6777344,3.9760742
		c5.7348633,0,10.9086914-1.5634766,15.125-4.5463867l5.6669922,5.1484375
		c-4.1367188,8.3129883-5.777832,15.5942383-4.8793945,21.6704102c0.715332,4.8466797,2.9174805,9.7167969,4.8603516,14.0136719
		c0.378418,0.8364258,0.7504883,1.6591797,1.1035156,2.4638672c1.2441406,2.8364258,2.7924805,6.3671875,2.8989258,7.7495117
		C97.6293945,74.2792969,91.4580078,85.6679688,79.9570312,89.7080078z M59.4580078,95.5712891
		c-4.2856445-4.2519531-10.3046875-8.6518555-18.4667969-11.5229492
		c-8.9658203-3.1499023-12.3862305-12.4101562-11.9521484-17.9799805c0.1679688-2.1796875,0.6254883-4.1303711,1.3603516-5.8037109
		c0.3261719-0.7451172,0.6669922-1.4995117,1.0131836-2.2666016l0.0703125-0.1552734
		c2.1005859-4.6479492,4.4829102-9.9194336,5.3198242-15.5932617c0.8637695-5.8452148-0.1347656-12.4423828-2.96875-19.671875
		c3.953125,1.6611328,8.3369141,2.5224609,12.9482422,2.5224609c4.777832,0,9.0356445-0.9609375,12.7124023-2.8637695
		c3.6699219,1.902832,7.9169922,2.8637695,12.6811523,2.8637695c4.6088867,0,8.9916992-0.8613281,12.9462891-2.5229492
		C82.2871094,29.809082,81.2890625,36.4067383,82.152832,42.25c0.8378906,5.6757812,3.2236328,10.9521484,5.3286133,15.6074219
		c0.3696289,0.8173828,0.7324219,1.6191406,1.0761719,2.4033203c0.7006836,1.5976562,2.1352539,4.8671875,2.4248047,5.9990234
		c0.375,6.2675781-4.4448242,14.7773438-13.0141602,17.7871094C69.7783203,86.9287109,63.7485352,91.3256836,59.4580078,95.5712891z
		"/>
	<rect fill="none" width="120" height="120"/>
</g>
</svg>
