<?xml version="1.0" encoding="utf-8"?>
<!-- Generator: Adobe Illustrator 20.0.0, SVG Export Plug-In . SVG Version: 6.00 Build 0)  -->
<svg version="1.1" xmlns="http://www.w3.org/2000/svg" xmlns:xlink="http://www.w3.org/1999/xlink" x="0px" y="0px"
	 viewBox="0 0 120 120" enable-background="new 0 0 120 120" xml:space="preserve">
	 <title>Society</title>
<g>
	<path d="M28,34.2000122c-5.9647827,0-10.7999878,4.8352051-10.7999878,10.7999878
		S22.0352173,55.7999878,28,55.7999878S38.7999878,50.9647827,38.7999878,45S33.9647827,34.2000122,28,34.2000122z M45.2000008,52
		c0-7.069622,5.7303772-12.7999992,12.7999992-12.7999992c7.0696106,0,12.8000031,5.7303772,12.8000031,12.7999992
		S65.0696106,64.8000031,58,64.8000031C50.930378,64.8000031,45.2000008,59.069622,45.2000008,52z M27,103h-8.725769
		C17.9154053,103,17,102.5953369,17,102.2601318V97h-2h-2.1073608C10.8983765,97,8,94.62323,8,92.7666016V65
		c0-3.383667,4.0046387-5.9838867,7.632019-5.9838867h28.2260742C45.2275391,61.7589722,47.3692017,64.0485229,50,65.6013184V66
		H38.8056641C33.2324219,66,27,70.3598633,27,76.1943359V103z M86,76.1943359v30.536377
		C86,108.8731079,82.9144897,111,80.6149902,111H78V81h-3.125v29.75V116c0,0.3862305-0.9609985,0.8530884-1.375,0.8530884h-31
		c-0.4140015,0-1.375-0.4668579-1.375-0.8530884v-5.25V81H38v30h-2.6149902C33.0855103,111,30,108.8731079,30,106.7307129
		v-30.536377C30,72.2887573,34.6196289,69,38.8053589,69h38.3892822C81.3803711,69,86,72.2887573,86,76.1943359z M91,85h3v4h-3V85z
		 M91,93h3v4h-3V93z M97,61h3v4h-3V61z M91,77h3v4h-3V77z M97,45h3v4h-3V45z M100,41h-3v-4h3V41z M91,45h3v4h-3V45z M112,30v74v3
		H88.9810181C88.9856567,106.90979,89,106.8214722,89,106.7304688V104h20V33H88v39.2685547
		c-1.2281494-2.3323364-3.4660034-4.1763306-6-5.2449341V65H68v-0.7775269
		C68.8122559,63.5567017,69.5577393,62.8123169,70.2234497,62H82v-5h-9.0202026
		c0.3223267-0.9629517,0.5559692-1.9651489,0.6873779-3H82v-5h-8.4942017c-0.2008667-1.0397949-0.5023193-2.0431519-0.8967896-3H82
		v-5H69.3185425C68.9007568,40.5702515,68.4639282,40.15979,68,39.77948V38h14v-5H68v-3h14h1h1h3V8.2167969L65,20.9845581
		v16.8721924c-1.8295898-0.9093628-3.8555298-1.4706421-6-1.605896V23v-2L89.9335938,3v27H99v-5h8v5H112z M91,69h3v4h-3V69z M94,41
		h-3v-4h3V41z M91,53h3v4h-3V53z M91,61h3v4h-3V61z M97,53h3v4h-3V53z M103,77h3v4h-3V77z M103,85h3v4h-3V85z M103,69h3v4h-3V69z
		 M103,61h3v4h-3V61z M103,93h3v4h-3V93z M84,25H68v-3h16V25z M103,53h3v4h-3V53z M97,69h3v4h-3V69z M97,85h3v4h-3V85z M97,77h3v4
		h-3V77z M97,93h3v4h-3V93z M106,41h-3v-4h3V41z M103,45h3v4h-3V45z"/>
</g>
</svg>
