<?xml version="1.0" encoding="utf-8"?>
<!-- Generator: Adobe Illustrator 20.0.0, SVG Export Plug-In . SVG Version: 6.00 Build 0)  -->
<svg version="1.1" xmlns="http://www.w3.org/2000/svg" xmlns:xlink="http://www.w3.org/1999/xlink" x="0px" y="0px"
	 viewBox="0 0 120 120" enable-background="new 0 0 120 120" xml:space="preserve">
<title>Laptop</title>
<g>
	<path display="none" d="M99.3078613,101l2.0090332,2h-8.7119141l-2.0158691-2H99.3078613z M105.7354736,101
		l-2.02771,2h8.5838623l1.9912109-2H105.7354736z"/>
	<polygon display="none" points="103.8505936,15.3506002 95.5,23.7021008 91.1156921,19.3178997 90.5497971,19.8833008 
		95.5,24.8334999 104.4164963,15.9160004 	"/>
	<rect fill="none" width="120" height="120"/>
	<rect fill="none" width="120" height="120"/>
	<path d="M101,77V23c0-2.2091675-1.7907715-4-4-4H23c-2.2091675,0-4,1.7908325-4,4v54L5,95v2h110v-2L101,77z M22,23
		c0-0.5512695,0.4482422-1,1-1h74c0.5517578,0,1,0.4487305,1,1v49c0,0.5512695-0.4482422,1-1,1H23c-0.5517578,0-1-0.4487305-1-1V23z
		 M48,93l4-5h16l4,5H48z"/>
</g>
</svg>
