<?xml version="1.0" encoding="utf-8"?>
<!-- Generator: Adobe Illustrator 18.0.0, SVG Export Plug-In . SVG Version: 6.00 Build 0)  -->
<!DOCTYPE svg PUBLIC "-//W3C//DTD SVG 1.1//EN" "http://www.w3.org/Graphics/SVG/1.1/DTD/svg11.dtd">
<svg version="1.1" id="Layer_1" xmlns="http://www.w3.org/2000/svg" xmlns:xlink="http://www.w3.org/1999/xlink" x="0px" y="0px"
	 viewBox="0 0 792 612" enable-background="new 0 0 792 612" xml:space="preserve">
<g>
	<path d="M472.5,209.4L472.5,209.4L472.5,209.4L472.5,209.4z"/>
	<circle cx="223.9" cy="438.9" r="38.2"/>
	<circle cx="491.6" cy="438.9" r="38.2"/>
	<path d="M472.5,228.5H243l-38.2,133.9c1,0,305,0,306,0L472.5,228.5z"/>
	<circle cx="577.7" cy="238.1" r="28.7"/>
	<path d="M90-1v612h612V-1H90z M673,209.4h-9.2h-10.5h-8.6v114.8c0,8.3-10.8,19.1-19.1,19.1h-19.1c-13.5,0-19.1-10.9-19.1-19.1V305
		h-73.8l16.4,57.4h76.5v18.7c0,7.9,0.7,19.6-9.9,19.6h-28.4v153c0,9.8-9.3,19.1-19.1,19.1h-38.2c-9.8,0-19.1-9.3-19.1-19.1v-19.1
		H223.9v19.1c0,9.8-9.3,19.1-19.1,19.1h-38.2c-9.8,0-19.1-9.3-19.1-19.1v-153H119c-10.6,0-9.9-11.3-9.9-19.1v-19.1h76.5l38.2-133.9
		c0-10.5,8.6-19.1,19.1-19.1h29c-10.4,0-9.9-11.3-9.9-19.1v-19.1l0,0h29.6h27.7l38.2-114.8c0-8.9,10.2-19.1,19.1-19.1h191.2
		c8.9,0,19.1,10.3,19.1,19.1l38.2,114.8h27.7h29.6l0,0v19.1l0,0C682.9,198.1,683.3,209.4,673,209.4z"/>
	<path d="M376.9,56.4l-38.2,114.8c0.9,0,266.9,0,267.8,0L568.1,56.4H376.9z"/>
</g>
</svg>
