<?xml version="1.0" encoding="utf-8"?>
<!-- Generator: Adobe Illustrator 20.0.0, SVG Export Plug-In . SVG Version: 6.00 Build 0)  -->
<svg version="1.1" xmlns="http://www.w3.org/2000/svg" xmlns:xlink="http://www.w3.org/1999/xlink" x="0px" y="0px"
	 viewBox="0 0 120 120" enable-background="new 0 0 120 120" xml:space="preserve">
<title>Weather</title>
<g>
	<rect fill="none" width="120" height="120"/>
	<path d="M95.8080292,19.8006382l4.0197525-4.4028435c0.723053-0.7943735,1.9534988-0.8490524,2.7478714-0.1226034
		c0.7926788,0.7213545,0.8473587,1.9501028,0.1226044,2.7427778l-4.0214462,4.404541
		c-0.7213593,0.7943745-1.9518051,0.8490524-2.7444763,0.1243019
		C95.1396561,21.8237591,95.0849762,20.5933132,95.8080292,19.8006382z M73,14c0,1.0728617,0.8953705,1.9436493,1.9989548,1.9436493
		C76.1042786,15.9436493,77,15.0728617,77,14V7.9433103C77,6.8704481,76.1042786,6,74.9989548,6
		C73.8953705,6,73,6.8704481,73,7.9433103V14z M47.7834587,18.1193333l4.0197525,4.4042015
		c0.7230492,0.7943726,1.9534988,0.8490524,2.74617,0.1243019c0.792675-0.7227135,0.8473549-1.9531593,0.1243019-2.7458344
		l-4.0197487-4.4028444c-0.723053-0.7943726-1.9534988-0.8490515-2.7478752-0.1229429
		C47.1133842,16.0975704,47.0587082,17.3266582,47.7834587,18.1193333z M34.5270386,36.6025162l5.5667267,2.1409683
		c1.0001831,0.3864861,2.1260262-0.1144524,2.5108147-1.1159935c0.3864899-1.0015411-0.1144524-2.1260262-1.1159935-2.512516
		l-5.5653648-2.1406288c-1.0015411-0.3847923-2.1260262,0.1161499-2.5121765,1.1193886
		C33.0262566,35.0935783,33.5254974,36.2180634,34.5270386,36.6025162z M108.5270386,62.2275162l5.5667267,2.1409683
		c1.0001831,0.3864899,2.1260223-0.1144562,2.5108185-1.1159935c0.3864822-1.0015411-0.1144562-2.1260262-1.1159973-2.512516
		l-5.5653687-2.1406288c-1.0015411-0.3847923-2.1260223,0.1161499-2.5121689,1.1193886
		C107.0262527,60.7185783,107.5254974,61.8430634,108.5270386,62.2275162z M116.5889511,36.0937347
		c-0.3861465-1.0032387-1.5106277-1.5041809-2.5121689-1.1193886l-5.5653687,2.1406288
		c-1.0015411,0.3864899-1.5024796,1.5109749-1.1159973,2.512516c0.3847961,1.0015411,1.5106354,1.5024796,2.5108185,1.1159935
		l5.5667267-2.1409683C116.4745026,38.2180634,116.9737473,37.0935783,116.5889511,36.0937347z M20.7368584,110.0708237
		l6.2116585-23.1822205c0.2144127-0.8002014-0.2604618-1.6227036-1.0606594-1.8371201h-0.0000038
		c-0.8001976-0.2144089-1.6227016,0.2604599-1.8371143,1.0606613l-6.2116585,23.1822205
		c-0.2144127,0.8002014,0.2604618,1.6227036,1.0606594,1.8371124l0.0000038,0.0000076
		C19.6999416,111.3458939,20.5224457,110.8710175,20.7368584,110.0708237z M46.7368584,110.0708237l6.2116585-23.1822205
		c0.2144127-0.8002014-0.2604599-1.6227036-1.0606613-1.8371201l0,0c-0.8001976-0.2144089-1.6227036,0.2604599-1.8371162,1.0606613
		l-6.2116585,23.1822205c-0.2144127,0.8002014,0.2604599,1.6227036,1.0606613,1.8371124v0.0000076
		C45.6999397,111.3458939,46.5224457,110.8710175,46.7368584,110.0708237z M71.7368622,110.0708237l6.2116547-23.1822205
		c0.2144089-0.8002014-0.2604599-1.6227036-1.0606613-1.8371201l0,0c-0.8002014-0.2144089-1.6227036,0.2604599-1.8371201,1.0606613
		l-6.2116547,23.1822205c-0.2144089,0.8002014,0.2604599,1.6227036,1.0606613,1.8371124v0.0000076
		C70.6999435,111.3458939,71.5224457,110.8710175,71.7368622,110.0708237z M92.5413818,70.3824463
		c0.838501,2.0859985,1.3256226,4.0449219,1.3256226,6.4307861C93.8670044,78.5412598,93.5,80.0714111,93,82H66.9186401
		l-6.1817627,23.0708008c-0.2144165,0.8002319-1.0369263,1.2750854-1.8371582,1.0606689
		c-0.8001709-0.2144165-1.2750244-1.0369263-1.0606079-1.8370972L63.8128052,82h-21.894165l-6.1817627,23.0708008
		c-0.2144165,0.8002319-1.0369263,1.2750854-1.8371582,1.0606689c-0.8001709-0.2144165-1.2750244-1.0369263-1.0606079-1.8370972
		L38.8128052,82H8.0804443c0-0.0214233-0.0068359-0.0397339-0.0068359-0.0614624
		c0-7.4243164,6.0310669-13.2983398,13.972168-12.8768311c0.885376-12.9446411,11.8393555-23.8803711,25.0081787-23.8803711
		c0.3812866,0,0.8372803,0.0618896,1.368042,0.1491089C50.6203613,32.6281128,61.6693115,23.2000122,75,23.2000122
		c14.9116821,0,26.7999878,11.8883057,26.7999878,26.7999878C101.7999878,57.9735718,98.0375366,65.4399414,92.5413818,70.3824463z
		 M99,50c0-13.2338867-10.7666016-24-24-24c-11.5557251,0-21.3760986,8.1486206-23.5314941,19.4294434
		c7.107605,1.5032349,13.3137207,6.9382935,16.4142456,13.8563843l1.6765137,3.9141846c3.8927612-1.5253906,5.8426514-2,9.1552124-2
		c4.9920654,0,9.4185181,2.8219604,12.2097168,6.5831909C95.9866943,63.0391846,99,56.43396,99,50z"/>
</g>
</svg>
