<?xml version="1.0" encoding="utf-8"?>
<!-- Generator: Adobe Illustrator 18.0.0, SVG Export Plug-In . SVG Version: 6.00 Build 0)  -->
<!DOCTYPE svg PUBLIC "-//W3C//DTD SVG 1.1//EN" "http://www.w3.org/Graphics/SVG/1.1/DTD/svg11.dtd">
<svg version="1.1" id="Layer_1" xmlns="http://www.w3.org/2000/svg" xmlns:xlink="http://www.w3.org/1999/xlink" x="0px" y="0px"
	 viewBox="0 0 792 612" enable-background="new 0 0 792 612" xml:space="preserve">
<g>
	<path d="M90,0v612h133.4v-76.5h0.5c0,0-62.7-51.1-66.1-61.9c-3.4-10.8-11.3-28.8-9.4-79.3l75.5,65.5v75.7h38.2v-75.7l75.5-65.5
		c1.9,50.5-6,68.5-9.4,79.3s-66.1,61.9-66.1,61.9h0.6V612h69.4l44.5-57.9l26,19.5l38.7-49.9l84.1-5.2c-24.5,34.2-39,42.1-46.8,47.5
		c-7.8,5.3-74.6,7.6-76,7.6l0.3,0.2L373.3,612H702V0H90z M575.3,323.6c4-18.2,13.8-61.1,19.3-66.2c6.9-6.4,17.7-19.1,57.5-34.8
		l-0.3,1.3l1.2-0.7c-4.4,42-13.8,55.6-18.2,64c-3.4,6.6-42.6,27.8-59.3,36.6l-0.4,0.5c0-0.1,0.1-0.3,0.1-0.4
		c-0.1,0.1-0.2,0.2-0.3,0.2L575.3,323.6z M500.6,303.6c3.2-8.9,7.1-24.7,34.2-57l17.7,81.4l-38.7,49.9
		C513.8,377.9,497.4,312.5,500.6,303.6z M223.9,401.6c0,0-63.4-51-66.8-61.8c-3.4-10.8-11.3-28.8-9.4-79.3l76.2,65.4V401.6z
		 M223.9,267.8c0,0-63.4-51.1-66.8-61.9c-3.4-10.8-11.3-28.8-9.4-79.3l76.2,65.4V267.8z M242.6,171.4v0.8c-0.1-0.1-0.1-0.3-0.2-0.4
		c-0.1,0.1-0.1,0.3-0.2,0.4v-0.8c-9.6-20.3-31.7-68.5-30.2-77.4c1.8-11.3,2.7-31.2,28.6-74.9l0.7,1.5l0.7-1.5
		c26.6,43.4,27.7,63.3,29.7,74.5C273.3,102.5,251.8,150.9,242.6,171.4z M328.9,339.8c-3.4,10.8-66.8,61.8-66.8,61.8v-75.7l76.2-65.4
		C340.2,311,332.3,329,328.9,339.8z M328.9,205.9c-3.4,10.8-66.8,61.9-66.8,61.9V192l76.2-65.4C340.2,177.1,332.3,195.1,328.9,205.9
		z M377,554.3c0,0-15.9-65.1-12.7-73.9c3.2-8.9,7.1-24.7,34.2-57l17.2,81L377,554.3z M432.2,391.8c3.2-8.9,7.1-24.7,34.2-57
		l17.7,81.4l-38.7,49.9C445.4,466.1,429,400.7,432.2,391.8z M547.4,478.1c-7.8,5.4-76.4,7.2-76.4,7.2l38.7-49.9l84.5-4.8
		C569.7,464.8,555.2,472.7,547.4,478.1z M615.8,389.9c-7.8,5.4-76.4,7.2-76.4,7.2l38.7-49.9l84.5-4.8
		C638.1,376.6,623.6,384.5,615.8,389.9z"/>
	<path d="M402.6,573.6C402.6,573.6,402.6,573.6,402.6,573.6L402.6,573.6L402.6,573.6z"/>
</g>
</svg>
