<?xml version="1.0" encoding="utf-8"?>
<!-- Generator: Adobe Illustrator 20.0.0, SVG Export Plug-In . SVG Version: 6.00 Build 0)  -->
<svg version="1.1" xmlns="http://www.w3.org/2000/svg" xmlns:xlink="http://www.w3.org/1999/xlink" x="0px" y="0px"
	 viewBox="0 0 120 120" enable-background="new 0 0 120 120" xml:space="preserve">
<title>Buildings</title>
<g>
	<path d="M76,66h4v4h-4V66z M76,78h4v-4h-4V78z M76,62h4v-4h-4V62z M85,102h4v-4h-4V102z M76,102h4v-4h-4V102z
		 M76,94h4v-4h-4V94z M76,86h4v-4h-4V86z M94,94h4v-4h-4V94z M94,78h4v-4h-4V78z M94,86h4v-4h-4V86z M94,62h4v-4h-4V62z M94,102h4
		v-4h-4V102z M94,70h4v-4h-4V70z M85,70h4v-4h-4V70z M85,86h4v-4h-4V86z M85,62h4v-4h-4V62z M85,94h4v-4h-4V94z M85,78h4v-4h-4V78z
		 M49,48H38v3h11V48z M49,32H38v3h11V32z M49,40H38v3h11V40z M49,24H38v3h11V24z M114,110v3H6v-3h8V16.1578979h5V16v-6V8h33
		v8.1578979h4.8421021V110H65V49h3v-9.3552856v-2.4342041h4V30h11.1052856V16.1578979H86V30h11v7.2105103h4V49h4v61H114z M27,16h22
		v-5H27V16z M54,19H22v5h11v3H22v5h11v3H22v5h11v3H22v5h11v3H22v5h11v3H22v5h11v3H22v5h11v3H22v5h11v3H22v5h11v3H22v5h11v3H22v11h32
		V19z M79,37h14v-4H79V37z M75,49h23v-9H75V49z M72,110h30V52H72V110z M49,64H38v3h11V64z M49,96H38v3h11V96z M49,88H38v3h11V88z
		 M49,56H38v3h11V56z M49,80H38v3h11V80z M49,72H38v3h11V72z"/>
</g>
</svg>
