<?xml version="1.0" encoding="utf-8"?>
<!-- Generator: Adobe Illustrator 20.0.0, SVG Export Plug-In . SVG Version: 6.00 Build 0)  -->
<svg version="1.1" xmlns="http://www.w3.org/2000/svg" xmlns:xlink="http://www.w3.org/1999/xlink" x="0px" y="0px"
	 viewBox="0 0 120 120" enable-background="new 0 0 120 120" xml:space="preserve">
<title>People</title>
<g>
	<path display="none" d="M13.3088198,69.6663742c-0.1473579,1.8419876-1.3271818,4.293045-2.3488684,5.7627029
		c-0.7682285,1.1061707-2.3194227,3.253334-3.1092644,3.5971756L6.6640019,79.81353v2.0119324l1.5746064-0.7872772
		c0,0,2.9267855-2.377655,4.373724-4.4613037c1.3625746-1.9620819,2.5692921-4.9420395,2.7117386-6.9105072H13.3088198z"/>
	<path d="M47.2000008,34c0-7.069622,5.7303772-12.7999992,12.7999992-12.7999992
		c7.0696106,0,12.8000031,5.7303772,12.8000031,12.7999992S67.0696106,46.7999992,60,46.7999992
		C52.930378,46.7999992,47.2000008,41.069622,47.2000008,34z M40.7999878,22
		c0,5.9647827-4.8352051,10.7999878-10.7999878,10.7999878S19.2000122,27.9647827,19.2000122,22
		S24.0352173,11.2000122,30,11.2000122S40.7999878,16.0352173,40.7999878,22z M38.0999985,22
		c0-4.4663086-3.6336899-8.1000004-8.0999985-8.1000004S21.8999996,17.5336914,21.8999996,22S25.5336914,30.1000004,30,30.1000004
		S38.0999985,26.4663086,38.0999985,22z M22,55h-3v16h-6.8573608C11.9228516,70.93396,11.2857666,70.4599609,11,70.0992432
		V41.2338867C11,40.4137573,13.1688843,39,15.132019,39h29.3602905c-0.3099365-0.9587402-0.5264282-1.9572144-0.6539307-2.9838867
		H15.632019C12.0046387,36.0161133,8,38.616333,8,42v27.7666016C8,71.62323,10.8983765,74,12.8926392,74H15h4v14.2601318
		C19,88.5953369,19.9154053,89,20.274231,89H29v-3h-7V55z M90,11.2000122c5.9647827,0,10.7999878,4.8352051,10.7999878,10.7999878
		S95.9647827,32.7999878,90,32.7999878S79.2000122,27.9647827,79.2000122,22S84.0352173,11.2000122,90,11.2000122z M90,30.1000004
		c4.4663086,0,8.0999985-3.6336918,8.0999985-8.1000004S94.4663086,13.8999996,90,13.8999996S81.9000015,17.5336914,81.9000015,22
		S85.5336914,30.1000004,90,30.1000004z M98,86h-7v3h8.725769C100.0845947,89,101,88.5953369,101,88.2601318V74h4h2.1073608
		C109.1016235,74,112,71.62323,112,69.7666016V42c0-3.383667-4.0046387-5.9838867-7.632019-5.9838867H76.1616211
		C76.0341187,37.0427856,75.817627,38.0412598,75.5076904,39h29.3602905C106.8311157,39,109,40.4137573,109,41.2338867v28.8653564
		C108.7142334,70.4599609,108.0771484,70.93396,107.8573608,71H101V55h-3V86z M79.1946411,51H40.8053589
		C36.6196289,51,32,54.2887573,32,58.1943359v30.536377C32,90.8731079,35.0855103,92.75,37.3850098,92.75H40V63h3.125v29.75v7.5V111
		c0,0.3862305,0.9609985,0.8530884,1.375,0.8530884h31c0.4140015,0,1.375-0.4668579,1.375-0.8530884v-10.75v-7.5V63H80v29.75
		h2.6149902C84.9144897,92.75,88,90.8731079,88,88.7307129v-30.536377C88,54.2887573,83.3803711,51,79.1946411,51z"/>
</g>
</svg>
