<?xml version="1.0" encoding="utf-8"?>
<!-- Generator: Adobe Illustrator 18.0.0, SVG Export Plug-In . SVG Version: 6.00 Build 0)  -->
<!DOCTYPE svg PUBLIC "-//W3C//DTD SVG 1.1//EN" "http://www.w3.org/Graphics/SVG/1.1/DTD/svg11.dtd">
<svg version="1.1" id="Layer_1" xmlns="http://www.w3.org/2000/svg" xmlns:xlink="http://www.w3.org/1999/xlink" x="0px" y="0px"
	 viewBox="0 0 792 612" enable-background="new 0 0 792 612" xml:space="preserve">
<g>
	<path d="M90,0v612h612V0H90z M549,59.3c30.6,0,55.5,24.8,55.5,55.5c0,30.6-24.8,55.5-55.5,55.5
		s-55.5-24.8-55.5-55.5C493.5,84.1,518.4,59.3,549,59.3z M386.4,105.2c37,0,66.9,30,66.9,66.9s-30,66.9-66.9,66.9
		s-66.9-30-66.9-66.9S349.5,105.2,386.4,105.2z M243,59.3c30.6,0,55.5,24.8,55.5,55.5c0,30.6-24.8,55.5-55.5,55.5
		s-55.5-24.8-55.5-55.5C187.5,84.1,212.4,59.3,243,59.3z M223.9,459h-19.1h-19.1v-19.1v-57.4h-19.1c-21,0-38.2-17.2-38.2-38.2V229.5
		c0-21,17.2-38.2,38.2-38.2h133.9v19.1H166.5c-10.5,0-19.1,8.6-19.1,19.1v114.8c0,10.5,8.6,19.1,19.1,19.1h19.1v-95.6h19.1v172.1
		h19.1V459z M529.9,306.4v133.5c0,14-7.8,26.3-19.1,32.9c-5.7,3.3-12.1,5.3-19.1,5.3v-153h-19.1v217.2
		c-3.3,17.8-18.9,31.4-37.6,31.4h-96.3c-21,0-38.3-17.2-38.3-38.2V325.1h-19.1v153c-21,0-38.2-17.2-38.2-38.2V306.4V306
		c0-21,17.2-38.2,38.2-38.2h210.4c21,0,38.2,17.2,38.2,38.2V306.4z M663.8,344.2c0,21-17.2,38.2-38.2,38.2h-19.1V459h-19.1H549
		v-19.1h38.2V267.8h19.1v95.6h19.1c10.5,0,19.1-8.6,19.1-19.1V229.5c0-10.5-8.6-19.1-19.1-19.1h-153v-19.1h153
		c21,0,38.2,17.2,38.2,38.2V344.2z"/>
	<path d="M243,154.9c22.1,0,40.2-18,40.2-40.2s-18-40.2-40.2-40.2s-40.2,18-40.2,40.2S220.9,154.9,243,154.9z"/>
	<path d="M549,154.9c22.1,0,40.2-18,40.2-40.2s-18-40.2-40.2-40.2s-40.2,18-40.2,40.2S526.9,154.9,549,154.9z"/>
</g>
</svg>
