<?xml version="1.0" encoding="utf-8"?>
<!-- Generator: Adobe Illustrator 20.0.0, SVG Export Plug-In . SVG Version: 6.00 Build 0)  -->
<svg version="1.1" xmlns="http://www.w3.org/2000/svg" xmlns:xlink="http://www.w3.org/1999/xlink" x="0px" y="0px"
	 viewBox="0 0 120 120" enable-background="new 0 0 120 120" xml:space="preserve">
	 <title>Graduation Cap and Dipolma</title>
<g>
	<path display="none" d="M99.3078613,101l2.0090332,2h-8.7119141l-2.0158691-2H99.3078613z M105.7354736,101
		l-2.02771,2h8.5838623l1.9912109-2H105.7354736z"/>
	<polygon display="none" points="103.8505936,15.3506002 95.5,23.7021008 91.1156921,19.3178997 90.5497971,19.8833008 
		95.5,24.8334999 104.4164963,15.9160004 	"/>
	<path d="M98,40.6768036v27.407814c0,6.3215561-11.3303375,11.8463821-25.5538483,11.8463821
		S47,74.4061737,47,68.0846176v-27.407814L72.4461517,54L98,40.6768036z M65.137146,109.0928345
		c-2.1358643,2.1358643-4.8824463,3-6.7713013,2.3009644c0.116272-1.3156738,0.8154907-2.7987061,2.0545654-4.0377808
		c2.1583862-2.1582642,5.0743408-2.7415161,6.5133057-1.3026123l-1.8422241-1.8422241
		c-1.4389648-1.4389038-4.3548584-0.8556519-6.5133057,1.3026123c-1.3594971,1.3594971-2.0907593,3.0182495-2.088623,4.4205322
		L32.0632935,85.5081177C33.0803223,87.456665,34,90.2575684,34,92.6154175C34,96.6937866,33.291687,100,30,100
		c-3.541687,0-4-3.3062134-4-7.3845825c0-1.3806152,0.2089844-2.9124146,0.5661621-4.3384399
		C25.1771851,88.7093506,23.7052612,89,22.3846436,89C18.3062134,89,15,88.291626,15,85c0-3.541687,3.3062134-4,7.3846436-4
		c2.0423584,0,4.4502563,0.4492798,6.3457031,1.1751099L6.0103149,59.4551392
		c-1.7469482-1.7470093-1.0388184-5.2872314,1.581543-7.9075928s6.1605835-3.3284912,7.9075928-1.581543L37.8615112,72.328064
		c-1.7471313-1.7467651-5.2871094-1.0386353-7.9074707,1.581665s-3.3284302,6.1605835-1.5814819,7.9075317l0.3579102,0.3579102
		c0.3859863,0.1478271,0.7437744,0.3096313,1.0797729,0.4789429c-0.5333862-1.8747559,0.3408203-4.4682007,2.3803711-6.5078125
		c2.6201782-2.6199951,6.159668-3.3283081,7.9070435-1.5820312l23.1014404,23.1014404
		c-1.7474365-1.7459717-5.2868042-1.0376587-7.9068604,1.5822144c-2.6203003,2.6203613-3.3284302,6.1606445-1.5814819,7.9075928
		l2.2366333,2.2365723c-1.7469482-1.7468872-1.0388794-5.2872314,1.5814819-7.9075317
		c2.6200562-2.6199341,6.1593628-3.328186,7.9068604-1.5822144l1.2828979,1.2828979
		C68.4655151,102.9320679,67.7574463,106.4724731,65.137146,109.0928345z M27.4047852,84.803772
		c-1.22052-0.4916382-3.0229492-0.9389038-5.0227051-0.9389038c-3.9818115,0-4.7799683,0.5165405-4.9163208,0.6567993
		C17.4646606,84.5227661,17.4047852,84.6502686,17.4047852,85c0,0.2305908,0.0365601,0.3209229,0.0343628,0.3209229
		c0.0188599,0.0216064,0.723877,0.814209,4.9429321,0.814209C24.1523438,86.1351318,26.0501709,85.4838867,27.4047852,84.803772z
		 M31.1350708,92.6181641c0-1.7702637-0.6506958-3.668457-1.3312988-5.0230103
		c-0.4921265,1.2209473-0.9388428,3.0233154-0.9388428,5.0230103c0,3.9821167,0.5165405,4.7796631,0.656189,4.9165649
		C29.5222778,97.5352783,29.6497192,97.5951538,30,97.5951538c0.2261353,0,0.3181152-0.0349121,0.3214722-0.0349121
		C30.3425293,97.5419312,31.1350708,96.8375244,31.1350708,92.6181641z M111,90.9769287c0,0,0-2.2058105,0-5.7230835
		c0-3.1152954-2.0687256-5.529541-2.5163574-6.015564C109.878418,78.81427,110.9000244,77.5333252,110.9000244,76
		c0-1.3366089-0.7783203-2.4814453-1.9000244-3.0369873V31.3952026L115,28.5L72.5,12L30,28.5l42.5,20.5076904L105.6743164,33
		H73.9244385h-0.5244141h-0.3244629C72.4815674,33,72,32.5184326,72,31.9244385v-0.848877
		C72,30.4815063,72.4815674,30,73.0755615,30h0.3244629h0.5244141h33.3104248c0.487793,0,0.9533691,0.2038574,1.2841797,0.5622559
		L109,31.083374l-3.3255615,1.9165649L106,32.8428345v40.1201782c-1.1217041,0.555542-1.9000244,1.7003784-1.9000244,3.0369873
		c0,1.4920654,0.9674072,2.7457275,2.3043213,3.2034912l-0.0805664,0.2221069C105.6074219,80.1641846,104,82.4048462,104,85.2538452
		c0,3.5172729,0,5.7230835,0,5.7230835S104.1083984,94.7446289,102,97h11C110.8916016,94.7446289,111,90.9769287,111,90.9769287z"/>
</g>
</svg>
