<?xml version="1.0" encoding="utf-8"?>
<!-- Generator: Adobe Illustrator 20.0.0, SVG Export Plug-In . SVG Version: 6.00 Build 0)  -->
<svg version="1.1" xmlns="http://www.w3.org/2000/svg" xmlns:xlink="http://www.w3.org/1999/xlink" x="0px" y="0px"
	 viewBox="0 0 120 120" enable-background="new 0 0 120 120" xml:space="preserve">
<title>Growing Plant</title>
<g>
	<path d="M108.487915,67.3483276L91.5703125,87l-25.4824829-1.7073364c0,0-3.690918-0.1581421-5.0878296-4.7836914
		c0,0-0.0047607,0.0018311-0.006897,0.0023193L60.8648682,80h22.3687134C84.8497314,80.1016846,88,79.6774292,88,76.4398193
		C88,74.3823242,85.833313,73,83.2335815,73c-0.633606,0-2.4376831,0-2.4376831,0l0.0352173-0.8381958
		c0.2105713-3.5412598,0.0682983-9.0774536,0.0510864-9.0774536c0.0244141-0.1229248,1.5298462-7.5436401,6.2203979-13.3237915
		c1.1564331,0.4244385,2.4936523,0.6472168,3.9042358,0.6472168c4.1256714,0,8.0895386-1.784668,10.3496704-4.6571655
		c1.151062-1.4651489,2.3269043-3.3709106,3.6325073-5.4887085c1.9668579-3.1919556,4.1972046-6.8101807,7.1925659-10.125
		l1.2247314-1.3563232l-1.819458,0.1577759c-1.5496826,0.1350708-3.3447266,0.3475342-5.380249,0.6403809
		c-17.0861206,2.4689331-22.4135132,6.5682983-23.873291,9.5705566c-0.8414307,1.7259521-0.7080688,3.6826782,0.4216919,6.1762085
		C89.4245605,39.4070435,95,38,95,38c-6.237793,3.2748413-10.8724976,8.9165649-11.4432373,9.6290894
		c-2.1424561,2.7433472-3.6488647,5.6945801-4.6680298,8.1905518c-2.0479736-8.447876-5.5912476-15.0715942-7.8796997-18.7495728
		C70.046875,35.7074585,61.2555542,23.7134399,46,18c0,0,14.0424194,2.4237671,25.5600586,14.4390869
		c1.5597534-3.7749634,2.4486694-8.9100952-1.8856812-13.5765381C64.4140015,13.1991577,57.0171509,8,31.1766968,8
		c-3.43927,0-13.079834,0.1531982-13.079834,0.1531982l1.3825073,1.1758423
		c5.5170898,4.6938477,13.4855347,12.4638672,20.1095581,22.8153076
		c5.1677856,8.0701294,10.4933472,11.7590942,15.8297119,11.7590942c3.6358032,0,7.5875244-1.4831543,11.757019-5.2070312
		c2.9741211,4.723999,10.3495483,18.1951904,9.0493164,33.7863159L76.1984253,73c-10.2144775,0-27.293396,0-27.293396,0
		c-6.0925446,0-14.7962036,7.2358398-14.7962036,7.2358398L7,112h27.015686l8.9021606-12.4978027L43.4177246,98h48.1911011
		l2.5813599-2.2175903l18.6231689-22.9435425C112.8133545,72.8388672,115.8317871,65.8392944,108.487915,67.3483276z"/>
</g>
</svg>
