<?xml version="1.0" encoding="utf-8"?>
<!-- Generator: Adobe Illustrator 18.0.0, SVG Export Plug-In . SVG Version: 6.00 Build 0)  -->
<!DOCTYPE svg PUBLIC "-//W3C//DTD SVG 1.1//EN" "http://www.w3.org/Graphics/SVG/1.1/DTD/svg11.dtd">
<svg version="1.1" id="Layer_1" xmlns="http://www.w3.org/2000/svg" xmlns:xlink="http://www.w3.org/1999/xlink" x="0px" y="0px"
	 viewBox="0 0 792 612" enable-background="new 0 0 792 612" xml:space="preserve">
<g>
	<path d="M90,0v612h612V0H90z M644.6,401.6l-76.5,114.8c-14.9,17.9-36.1,19.1-38.2,19.1c-1.1,0-248.6,0-248.6,0
		L243,573.8H128.2v-38.2l95.6-95.6c0,0,29.5-38.2,76.5-38.2c0,0,99,0,155.4,0c10-82-27.8-153.5-48-184.8
		c-26.8,18-69.1,12.7-69.1,12.7c-27,0-49.7-15.6-76.5-57.4c-36-56.2-67.3-90.6-95.6-114.8c21.3-1.1,31.3,0,49.7,0
		c136,0,171.5,27.8,198.9,57.4c34.6,37.2,14,77.9,3.7,91.8c14,21,37.6,62.1,48.2,114c5.9-17.2,16.6-41.1,34.4-60.9
		c-4.5-2.9-7.9-6.5-9.8-10.9c-7.8-15.3-3.4-31.4,0-38.2c6-12.4,39.1-38.2,153-38.2c-16.3,18-51.3,69.5-57.4,77.2
		c-14.7,16.7-48.2,22.3-71.7,16.2c-26.4,28.6-39.6,72.5-43.8,88.5c1.2,15.3,1,31.3-0.9,47.7c9.9,0,17.3,0,20.8,0
		c10.8,0,19.7,8.2,19.1,19.1c-0.6,10.9-10.5,19.7-19.1,19.1c0,0-90.5,0-114.8,0c0,35.3,19.1,38.2,19.1,38.2h133.9l76.5-95.6
		c23-26.9,38.2-19.2,38.2-19.1C657.2,372.6,651.8,385.5,644.6,401.6z"/>
</g>
</svg>
