<?xml version="1.0" encoding="utf-8"?>
<!-- Generator: Adobe Illustrator 20.0.0, SVG Export Plug-In . SVG Version: 6.00 Build 0)  -->
<svg version="1.1" xmlns="http://www.w3.org/2000/svg" xmlns:xlink="http://www.w3.org/1999/xlink" x="0px" y="0px"
	 viewBox="0 0 120 120" enable-background="new 0 0 120 120" xml:space="preserve">
<title>Calculator</title>
<g>
	<path d="M96.0009766,13H22.9990234C20.7904053,13,19,14.7904053,19,16.9990234v86.0019531
		C19,105.2095337,20.7904053,107,22.9990234,107h73.0019531C98.2095947,107,100,105.2095337,100,103.0009766V16.9990234
		C100,14.7904053,98.2095947,13,96.0009766,13z M45,97H26V78h19V97z M45,70H26V51h19V70z M69,97H50V78h19V97z M69,70H50V51h19V70z
		 M93,97H74V78h19V97z M93,70H74V51h19V70z M93,41H26V22h67V41z M66,62H53v-3h13V62z M90,86H77v-3h13V86z M90,92H77v-3h13V92z
		 M66,89H53v-3h13V89z M42,62h-5v5h-3v-5h-5v-3h5v-5h3v5h5V62z M37.3800049,87.5397339l4.8135986,4.7546387l-1.838501,1.838501
		l-4.8251343-4.7660522l-4.7235718,4.6652222l-1.838501-1.8384399l4.7122192-4.6539917l-4.8129883-4.7540283l1.838501-1.838501
		l4.8244629,4.7653809l4.8250122-4.7653809l1.838501,1.838501L37.3800049,87.5397339z M59.9665527,84h-0.9331055
		C58.4626884,84,58,83.5373077,58,82.9665527v-0.9331055C58,81.4626923,58.4626884,81,59.0334473,81h0.9331055
		C60.5373116,81,61,81.4626923,61,82.0334473v0.9331055C61,83.5373077,60.5373116,84,59.9665527,84z M59.9665527,94h-0.9331055
		C58.4626884,94,58,93.5373077,58,92.9665527v-0.9331055C58,91.4626923,58.4626884,91,59.0334473,91h0.9331055
		C60.5373116,91,61,91.4626923,61,92.0334473v0.9331055C61,93.5373077,60.5373116,94,59.9665527,94z M87.5820312,57.5620117
		c-0.4335938-0.4506836-0.8886719-0.7929688-1.3652344-1.0273438c-0.4765625-0.2338867-1.0439453-0.3505859-1.703125-0.3505859
		c-0.6416016,0-1.2001953,0.1166992-1.6767578,0.3505859c-0.4765625,0.234375-0.875,0.5551758-1.1962891,0.9624023
		c-0.3203125,0.4072266-0.5634766,0.8754883-0.7275391,1.4038086c-0.1650391,0.5288086-0.2470703,1.0791016-0.2470703,1.6508789
		c0,0.5722656,0.0947266,1.1142578,0.2861328,1.625c0.1904297,0.5117188,0.4589844,0.9580078,0.8056641,1.3388672
		c0.3466797,0.3818359,0.7626953,0.6806641,1.2480469,0.8974609s1.03125,0.324707,1.6376953,0.324707
		c0.6591797,0,1.2226562-0.1166992,1.6904297-0.3510742c0.4677734-0.2338867,0.9013672-0.5756836,1.2998047-1.0268555
		l1.6640625,1.6640625c-0.6064453,0.6757812-1.3125,1.1616211-2.1191406,1.4560547
		c-0.8056641,0.2944336-1.6591797,0.4418945-2.5605469,0.4418945c-0.9541016,0-1.8242188-0.15625-2.6132812-0.4677734
		c-0.7890625-0.3120117-1.46875-0.75-2.0410156-1.3134766c-0.5722656-0.5629883-1.0136719-1.2387695-1.3261719-2.027832
		c-0.3115234-0.7885742-0.4677734-1.659668-0.4677734-2.612793s0.15625-1.8286133,0.4677734-2.6259766
		c0.3125-0.7973633,0.75-1.4819336,1.3134766-2.0541992c0.5625-0.5717773,1.2392578-1.0180664,2.0273438-1.3388672
		C82.7675781,54.1601562,83.6474609,54,84.6181641,54c0.9013672,0,1.7636719,0.1601562,2.5869141,0.480957
		s1.5380859,0.8105469,2.1445312,1.46875L87.5820312,57.5620117z M64,38h-3V25h3V38z M77,25v5v1v2h-5v2h5v3h-5h-2h-1v-5v-1v-2h5v-2
		h-5v-3h5h1H77z M90,25v5v1v1v1v2v3h-3h-5v-3h5v-2h-5v-3h5v-2h-5v-3h5h1H90z"/>
</g>
</svg>
