<?xml version="1.0" encoding="utf-8"?>
<!-- Generator: Adobe Illustrator 18.0.0, SVG Export Plug-In . SVG Version: 6.00 Build 0)  -->
<!DOCTYPE svg PUBLIC "-//W3C//DTD SVG 1.1//EN" "http://www.w3.org/Graphics/SVG/1.1/DTD/svg11.dtd">
<svg version="1.1" id="Layer_1" xmlns="http://www.w3.org/2000/svg" xmlns:xlink="http://www.w3.org/1999/xlink" x="0px" y="0px"
	 viewBox="0 0 792 612" enable-background="new 0 0 792 612" xml:space="preserve">
<g>
	<path d="M90,0v612h612V0H90z M650.8,503.4l-41.1,41.1c-2,2-5.2,2-7.2,0L445.3,387.3v-32.2L408.2,318l-99.7,99.7
		l-47.9,111.9l0.2,0.2l-16.6,16.6L163.8,466l16.6-16.6l0.2,0.2l111.9-47.9l99.7-99.7L284.5,194.3L188,290.8l-48.2-48.2
		c0,0,128.3-128.3,128.7-128.7c0,0,53.6-21.8,112.6-48.2l16.1,16.1l-96.5,96.5c0,0,3.5,3.5,16.5,16.5c0.7,0.7,49.1,49.1,91.2,91.2
		l77.2-77.2l-32.2-32.2c-8.8-8.8-8.8-23.3,0-32.2l16.1-16.1c4.4-4.4,27.7-27.7,32.2-32.2C523.8,73.8,600,65.8,622.2,88
		c22.2,22.2,14.2,98.3-8.1,120.6c-2.4,2.4-30.1,30.1-32.2,32.2l-16.1,16.1c-8.8,8.8-23.3,8.8-32.2,0l-32.2-32.2l-77.2,77.2
		c15.5,15.5,28.9,28.9,37.1,37.1h32.2l157.2,157.2C652.8,498.2,652.8,501.5,650.8,503.4z"/>
	<polygon points="196,466 244.2,514.2 276.3,449.8 260.3,433.8 	"/>
</g>
</svg>
