<?xml version="1.0" encoding="utf-8"?>
<!-- Generator: Adobe Illustrator 20.0.0, SVG Export Plug-In . SVG Version: 6.00 Build 0)  -->
<svg version="1.1" xmlns="http://www.w3.org/2000/svg" xmlns:xlink="http://www.w3.org/1999/xlink" x="0px" y="0px"
	 viewBox="0 0 120 120" enable-background="new 0 0 120 120" xml:space="preserve">
	 <title>Health</title>
<g>
	<path d="M108.1140747,24.5c-5.401001-6.5900269-11.3903809-7.3846436-18.4615479-7.3846436
		c-9.0087891,0-17.8287354,4.0581055-20.90802,6.427063L67.5,24.4990234l-1.2444458-0.956604
		c-0.0505981-0.0389404-0.1154785-0.0818481-0.1691895-0.1216431c-3.2138672-2.4044189-11.8783569-6.9923096-20.7415161-6.9923096
		c-14.5852051,0-22.9725952,9.2352295-22.5426025,21.1576538C23.0072021,43.8847046,25.4638672,50.9060669,29.151062,58H9v3
		h21.7790527c10.0273438,17.7415161,26.8449707,35.3639526,34.5704346,42.7272339
		c0.0897827,0.0857544,0.1759033,0.1675415,0.2632446,0.2504883c0.1015015,0.0963135,0.2017822,0.1912842,0.2999268,0.2837524
		c0.5922241,0.5592041,1.1290283,1.0567017,1.5860596,1.4692993c0.0004272-0.0003662,0.0008545-0.0008545,0.0008545-0.0008545
		l0.0004883-0.0003052v-0.000061C77.9990845,96.2524414,126.4594727,46.883667,108.1140747,24.5z M89.5,65
		c-2.8773193,0-5.3731689-1.6221313-6.6309204-4H69l-4.5-21l-11,42L47,61H32l-2-3h18.5l5,16l11-45L71,58h11.0252075
		C82.0142212,57.8339844,82,57.6688232,82,57.5c0-4.1421509,3.3578491-7.5,7.5-7.5s7.5,3.3578491,7.5,7.5S93.6421509,65,89.5,65z"/>
</g>
</svg>
