<?xml version="1.0" encoding="utf-8"?>
<!-- Generator: Adobe Illustrator 20.0.0, SVG Export Plug-In . SVG Version: 6.00 Build 0)  -->
<svg version="1.1" xmlns="http://www.w3.org/2000/svg" xmlns:xlink="http://www.w3.org/1999/xlink" x="0px" y="0px"
	 viewBox="0 0 120 120" enable-background="new 0 0 120 120" xml:space="preserve">
<title>Water</title>
<g>
	<path d="M112,112H8V91.7575912c2.8685627,1.8514404,6.8006248,3.3424072,10.6324062,3.3424072
		c5.5945301,0,10.5039673-2.9226837,13.7331562-6.1721573c3.2260933,3.2494736,8.1389694,6.1721573,13.7300606,6.1721573
		c5.5959396,0,10.5053444-2.9226837,13.7331581-6.1721573c3.2260933,3.2494736,8.140686,6.1721573,13.7331543,6.1721573
		c5.5959091,0,10.5040054-2.9226837,13.7300644-6.1721573c3.229187,3.2494736,8.1369019,6.1721573,13.7297134,6.1721573
		c3.9881897,0,8.0508804-1.5899658,10.9782867-3.5603409V112z M82.4204102,65.8935547
		c-2.8755493,13.746582-15.1159668,15.8973999-22.1602173,15.8973999h-0.7603149h-0.7720947
		c-7.0442505,0-19.284668-2.1508179-22.1602173-15.8973999c-0.4949951-1.5810547-0.456543-5.6816406-0.1270142-7.9560547
		c0.7765503-5.3597412,4.6644897-13.7315063,8.1295776-18.699707c3.4951782-4.9979858,12.7676392-22.9274902,14.9297485-28.1478271
		c2.1621094,5.2203369,11.4227905,23.1498413,14.9179688,28.1478271c3.4650879,4.9682007,7.3530273,13.3399658,8.1295776,18.699707
		C82.8769531,60.2119141,82.9154053,64.3125,82.4204102,65.8935547z M51.710083,41.6547241
		c0,0-11.5245361,20.421814-6.4703979,22.8490601C50.2935181,66.9306641,52.1146851,57.0227051,51.710083,41.6547241z"/>
</g>
</svg>
