<?xml version="1.0" encoding="utf-8"?>
<!-- Generator: Adobe Illustrator 18.0.0, SVG Export Plug-In . SVG Version: 6.00 Build 0)  -->
<!DOCTYPE svg PUBLIC "-//W3C//DTD SVG 1.1//EN" "http://www.w3.org/Graphics/SVG/1.1/DTD/svg11.dtd">
<svg version="1.1" id="Layer_1" xmlns="http://www.w3.org/2000/svg" xmlns:xlink="http://www.w3.org/1999/xlink" x="0px" y="0px"
	 viewBox="0 0 792 612" enable-background="new 0 0 792 612" xml:space="preserve">
<g>
	<path d="M396,401.6c63.4,0,114.8-51.4,114.8-114.8S454,191.8,396,76.5c-57.4,115.3-114.8,147-114.8,210.4
		S332.6,401.6,396,401.6z M319.5,267.8c5-15,57.4-95.6,57.4-95.6s0,96.5,0,114.8c-5,15-23.2,24.2-38.2,19.1S314.5,282.8,319.5,267.8
		z"/>
	<path d="M90,0v612h612V0H90z M311.1,176.8c19.5-27,43.8-60.6,67.8-108.8L396,38.2l17.1,29.7
		c24,47.8,48.2,81.3,67.6,108.2c27.5,38.1,49.2,68.2,49.2,110.8c0,73.8-60.1,133.9-133.9,133.9s-133.9-60.1-133.9-133.9
		C262.1,244.5,283.7,214.6,311.1,176.8z M663.8,573.8H128.2V459c0,0,19.7,38.2,57.4,38.2c30.1,0,40-20.2,57.4-38.2
		c17.4,18.1,46.4,38.2,76.5,38.2c30.1,0,59.1-20.2,76.5-38.2c17.4,18.1,46.4,38.2,76.5,38.2c30.1,0,59.1-20.2,76.5-38.2
		c17.4,18.1,27.3,38.2,57.4,38.2c38.8,0,57.4-38.2,57.4-38.2V573.8z"/>
</g>
</svg>
