<?xml version="1.0" encoding="utf-8"?>
<!-- Generator: Adobe Illustrator 20.0.0, SVG Export Plug-In . SVG Version: 6.00 Build 0)  -->
<svg version="1.1" xmlns="http://www.w3.org/2000/svg" xmlns:xlink="http://www.w3.org/1999/xlink" x="0px" y="0px"
	 viewBox="0 0 120 120" enable-background="new 0 0 120 120" xml:space="preserve">
<title>Satellite</title>
<g>
	<path d="M82.7325439,44.3710938c0.5396729,0.5361328,1.40979,0.5361328,1.9494629,0l21.2203369-22.4628906
		c0.5396729-0.5328979,0.5396729-1.4066162,0-1.9459229L94.2304688,8.2971802c-0.5361328-0.5429077-1.40802-0.5429077-1.9440918,0
		L71.062439,30.7533569c-0.5360718,0.5396729-0.5360718,1.406189,0,1.9494629l4.9344482,4.9344482l-7.1049194,7.1045532
		l-5.1589966-5.1572266c-5.4504395-5.4504395-10.9332275-4.0348511-16.1204834,1.1524048l-6.3093262,6.3075562
		c-4.8792725,4.8793335-5.7507935,11.0697632-0.9260864,15.8944702l5.1590576,5.1590576l-8.0117798,8.0131836l-3.8917847-3.8883057
		c-0.5361328-0.5428467-1.40802-0.5428467-1.9441528,0l-21.223877,22.4561768c-0.5361328,0.5396729-0.5361328,1.40625,0,1.9494629
		l11.670105,11.668335c0.5396729,0.5361328,1.40979,0.5361328,1.9494629,0l21.2203369-22.4629517
		c0.5396729-0.5328979,0.5396729-1.4065552,0-1.9459229l-5.8341064-5.8309326l8.0117188-8.0131836l7.8670044,7.8670654
		l10.343689-10.3440552l7.8738403,7.8673706C67.2427979,83.0863647,66,94.5333252,66,102l37-39
		c-9.0721436,0-19.1855469,2.9189453-26.6637573,9.5939331l-7.8374023-7.8327026l10.2061157-10.2078857l-7.8670654-7.8656006
		l7.1049805-7.1045532L82.7325439,44.3710938z"/>
</g>
</svg>
