<?xml version="1.0" encoding="utf-8"?>
<!-- Generator: Adobe Illustrator 20.0.0, SVG Export Plug-In . SVG Version: 6.00 Build 0)  -->
<svg version="1.1" xmlns="http://www.w3.org/2000/svg" xmlns:xlink="http://www.w3.org/1999/xlink" x="0px" y="0px"
	 viewBox="0 0 120 120" enable-background="new 0 0 120 120" xml:space="preserve"><title>Bridge, Roadways</title>
<g>
	<path d="M109,34.7391968v-3.1439209C98.5248413,28.2240601,91,19.1467285,91,8.5V7h-4v1.5
		C87,22.0097656,74.8876953,33,60,33S33,22.0097656,33,8.5V7h-4v1.5c0,10.6467285-7.5248413,19.7240601-18,23.0952759v3.1439209
		c7.9327393-2.2841797,14.4259644-7.5172119,18-14.2868042V39H11v8h18l-1,21h6l-1-21h54l-1,21h6l-1-21h18v-8H91V20.4523926
		C94.5740356,27.2219849,101.0672607,32.4550171,109,34.7391968z M33,39V20.4969482C37.8614502,29.6732788,48.1239624,36,60,36
		s22.1385498-6.3267212,27-15.5030518V39H33z M109,80v-6H11v6h14v3H11v6h98v-6H95v-3H109z M46,83H32v-3h14V83z M67,83H53v-3h14V83z
		 M88,83H74v-3h14V83z M109,99v-3H11v3h7v9h-7v3h98v-3h-8v-9H109z M41,99h7v9h-7V99z M38,108h-7v-9h7V108z M51,99h7v9h-7V99z M61,99
		h7v9h-7V99z M71,99h7v9h-7V99z M81,99h7v9h-7V99z M21,99h7v9h-7V99z M98,108h-7v-9h7V108z"/>
</g>
</svg>
