<?xml version="1.0" encoding="utf-8"?>
<!-- Generator: Adobe Illustrator 18.0.0, SVG Export Plug-In . SVG Version: 6.00 Build 0)  -->
<!DOCTYPE svg PUBLIC "-//W3C//DTD SVG 1.1//EN" "http://www.w3.org/Graphics/SVG/1.1/DTD/svg11.dtd">
<svg version="1.1" id="Layer_1" xmlns="http://www.w3.org/2000/svg" xmlns:xlink="http://www.w3.org/1999/xlink" x="0px" y="0px"
	 viewBox="0 0 792 612" enable-background="new 0 0 792 612" xml:space="preserve">
<g>
	<path d="M300.4,554.6H396l0-57.4h38.2v57.4h57.4v-98.7l-95.5-73.4l-95.7,73.8V554.6z M319.5,478.1h38.2v38.2h-38.2
		V478.1z"/>
	<path d="M439.7,117.5c0-24.2-19.6-43.7-43.7-43.7s-43.7,19.6-43.7,43.7c0,24.2,19.6,43.7,43.7,43.7
		S439.7,141.6,439.7,117.5z"/>
	<path d="M702,554.6v19.1h-19.1h-95.6V459.9h-19.1l38.3-26.9v-69.6h38.2v42.1l57.4-42.1v19.2v114.7l0,3V0H90v612h612
		L702,554.6L702,554.6z M319.5,81.3c0-44.9,34.3-62.2,76.5-62.2s76.5,17.3,76.5,62.2c0,0,0,0,0,0.1v162.5L396,325.1l-76.5-81.3V81.3
		z M204.7,459.9v113.9h-95.6H90v-19.1v-57.4V382.6v-19.2l133.9,96.5H204.7z M510.7,459.9v113.9h-95.6h-38.2h-95.6V459.9h-19.1
		l38.3-26.9v-69.6h38.2v42.1l57.4-42.1l133.9,96.5H510.7z"/>
	<polygon points="702,554.6 702,500.3 702,554.6 	"/>
	<polygon points="702,554.6 702,554.6 702,500.3 702,497.2 	"/>
	<path d="M702,382.6l-95.6,73.8v98.3H702v-57.4V382.6z M663.8,516.4h-38.2v-38.2h38.2V516.4z"/>
	<polygon points="90,497.2 90,554.6 90,554.6 	"/>
	<polygon points="128.2,554.6 185.6,554.6 185.6,455.9 90.1,382.5 90,382.6 90,497.2 128.2,497.2 	"/>
</g>
</svg>
