<?xml version="1.0" encoding="utf-8"?>
<!-- Generator: Adobe Illustrator 20.0.0, SVG Export Plug-In . SVG Version: 6.00 Build 0)  -->
<svg version="1.1" xmlns="http://www.w3.org/2000/svg" xmlns:xlink="http://www.w3.org/1999/xlink" x="0px" y="0px"
	 viewBox="0 0 120 120" enable-background="new 0 0 120 120" xml:space="preserve">
<title>Park</title>
<g>
	<path d="M78,109V86h34L82.5278931,58H106L81.6363525,34H100L74.5,7L49,34h18.3636475L43,58h23.4721069L37,86h34v23
		H43.4666748l-2.666687-5H45v-3h-5.7999878l-2.666687-5H41v-3H22v3h4.4666748l-2.666687,5H18v3h4.2000122l-2.666687,5H6v3h108v-3H78
		z M29.4666748,96h4.0666504l2.666687,5h-9.4000244L29.4666748,96z M25.2000122,104h12.5999756l2.666687,5H22.5333252
		L25.2000122,104z"/>
</g>
</svg>
