<?xml version="1.0" encoding="utf-8"?>
<!-- Generator: Adobe Illustrator 20.0.0, SVG Export Plug-In . SVG Version: 6.00 Build 0)  -->
<svg version="1.1" xmlns="http://www.w3.org/2000/svg" xmlns:xlink="http://www.w3.org/1999/xlink" x="0px" y="0px"
	 viewBox="0 0 120 120" enable-background="new 0 0 120 120" xml:space="preserve">
<title>Science Beaker</title>
<g>
	<path display="none" d="M13.3088198,69.6663742c-0.1473579,1.8419876-1.3271818,4.293045-2.3488684,5.7627029
		c-0.7682285,1.1061707-2.3194227,3.253334-3.1092644,3.5971756L6.6640019,79.81353v2.0119324l1.5746064-0.7872772
		c0,0,2.9267855-2.377655,4.373724-4.4613037c1.3625746-1.9620819,2.5692921-4.9420395,2.7117386-6.9105072H13.3088198z"/>
	<rect fill="none" width="120" height="120"/>
	<path d="M98.3744507,104.2947998L73,68V39h6v-3H41v3h6v29l-25.3430176,35.9074097
		C19.6987915,107.571167,22.3533936,112,26.5076294,112h67.2484131C97.7114258,112,100.2389526,107.7831421,98.3744507,104.2947998z
		 M41,89l-13.3348999,20h-1.597168c-1.1435547,0-1.7226562-0.7597656-1.9179688-1.0864258
		c-0.1962891-0.3271484-0.59375-1.1958008-0.0546875-2.2045898L50,68.7514648V39h13v4h-5v3h5v6h-5v3h5v6h-5v3h5v6h-5v3h5v6h-5v3h5v7
		H41z M40.7999992,21.5c0,3.479393-2.8206062,6.2999992-6.2999992,6.2999992S28.2000008,24.979393,28.2000008,21.5
		S31.020607,15.1999998,34.5,15.1999998S40.7999992,18.020607,40.7999992,21.5z M83.7999878,10.5
		c0,3.4793701-2.8206177,6.2999878-6.2999878,6.2999878S71.2000122,13.9793701,71.2000122,10.5
		c0-3.4794312,2.8206177-6.2999878,6.2999878-6.2999878S83.7999878,7.0205688,83.7999878,10.5z M80.7998047,10.5
		c0-1.8193359-1.4804688-3.2998047-3.2998047-3.2998047S74.2001953,8.6806641,74.2001953,10.5
		S75.6806641,13.7998047,77.5,13.7998047S80.7998047,12.3193359,80.7998047,10.5z M68.7999878,26.5
		c0,3.4793701-2.8206177,6.2999878-6.2999878,6.2999878S56.2000122,29.9793701,56.2000122,26.5
		c0-3.4794312,2.8206177-6.2999878,6.2999878-6.2999878S68.7999878,23.0205688,68.7999878,26.5z M65.7998047,26.5
		c0-1.8193359-1.4804688-3.2998047-3.2998047-3.2998047S59.2001953,24.6806641,59.2001953,26.5
		S60.6806641,29.7998047,62.5,29.7998047S65.7998047,28.3193359,65.7998047,26.5z"/>
</g>
</svg>
