<?xml version="1.0" encoding="utf-8"?>
<!-- Generator: Adobe Illustrator 18.0.0, SVG Export Plug-In . SVG Version: 6.00 Build 0)  -->
<!DOCTYPE svg PUBLIC "-//W3C//DTD SVG 1.1//EN" "http://www.w3.org/Graphics/SVG/1.1/DTD/svg11.dtd">
<svg version="1.1" id="Layer_1" xmlns="http://www.w3.org/2000/svg" xmlns:xlink="http://www.w3.org/1999/xlink" x="0px" y="0px"
	 viewBox="0 0 792 612" enable-background="new 0 0 792 612" xml:space="preserve">
<g>
	<path d="M310.1,344.2h66.8v-57.4h-76.5C300.4,307,303.6,326.4,310.1,344.2z"/>
	<path d="M318.6,172.1h58.3v-57.4C350.4,128.9,331.2,148.8,318.6,172.1z"/>
	<path d="M300.4,248.6h76.5v-57.4h-66.8C303.6,209.1,300.4,228.5,300.4,248.6z"/>
	<path d="M502.1,344.2H549v2c9.4-18.2,15.6-38.2,18-59.4h-56.2C510.8,308.3,507.6,327.2,502.1,344.2z"/>
	<path d="M374.3,97.1c-50.5,6.4-94.3,34.6-121.3,75h44.6C312.9,140.7,338.8,116.6,374.3,97.1z"/>
	<path d="M290,191.2h-47v-2c-9.4,18.2-15.6,38.2-18,59.4h56.4C281.4,227.2,284.5,208.3,290,191.2z"/>
	<path d="M281.4,286.9H225c2.4,21.2,8.6,41.2,18,59.4v-2h47C284.5,327.2,281.4,308.3,281.4,286.9z"/>
	<path d="M376.9,420.8v-57.4h-58.3C331.2,386.7,350.4,406.6,376.9,420.8z"/>
	<path d="M297.6,363.4H253c27.1,40.4,70.9,68.6,121.3,75C338.8,418.9,312.9,394.8,297.6,363.4z"/>
	<path d="M510.8,248.6H567c-2.4-21.2-8.6-41.2-18-59.4v2h-46.9C507.6,208.3,510.8,227.2,510.8,248.6z"/>
	<path d="M494.5,172.1H539c-27.1-40.4-70.8-68.5-121.2-75C453.4,116.7,479.2,140.7,494.5,172.1z"/>
	<path d="M494.5,363.4c-15.3,31.4-41.1,55.5-76.7,75c50.4-6.4,94.1-34.6,121.2-75H494.5z"/>
	<path d="M90,0v612h612V0H90z M291.8,573.8l-3.3-9.1c0,0-131.5-60.1-132.1-60.4c-1.1-0.5-12.1-6.3-15.6-19.5
		l-12.5-80.1c0.1-10.4,0.4-18.6,9.4-20.5c0,0,10-0.5,15.6,19.5l17.2,69.9l71.1,32.5c0,0,10.9,3,19.5-15.9c-12.9-5.9-61-27.9-61-27.9
		c-4.7-1.8-7.9-8.9-5.5-14.9c2.4-6,9.1-8.2,14.8-5.6c11.5,5.2,101.6,46.4,101.6,46.4c25,11.4,31.3,39.1,31.3,39.1l17,46.4H291.8z
		 M204.8,267.8c0-105.6,85.6-191.2,191.2-191.2s191.2,85.6,191.2,191.2S501.6,459,396,459S204.8,373.4,204.8,267.8z M650.3,484.8
		c-3.5,13.2-14.5,19-15.6,19.5c-0.6,0.3-132.1,60.4-132.1,60.4l-3.3,9.1h-67.6l17-46.4c0,0,6.3-27.7,31.3-39.1
		c0,0,90.1-41.2,101.6-46.4c5.7-2.6,12.5-0.4,14.8,5.6c2.4,6-0.8,13.1-5.5,14.9c0,0-48.1,22-61,27.9c8.6,18.9,19.5,15.9,19.5,15.9
		l71.1-32.5l17.2-69.9c5.6-20,15.6-19.6,15.6-19.5c8.9,1.9,9.2,10.1,9.4,20.5L650.3,484.8z"/>
	<path d="M473.5,363.4h-58.4v75.4c0,0,0.1,0,0.1,0v-18C441.7,406.6,461,386.7,473.5,363.4z"/>
	<path d="M491.7,286.9h-76.6v57.4H482C488.5,326.4,491.7,307,491.7,286.9z"/>
	<path d="M482,191.2h-66.9v57.4h76.6C491.7,228.5,488.5,209.1,482,191.2z"/>
	<path d="M415.2,114.8l-0.1,57.4h58.4C461,148.8,441.7,128.9,415.2,114.8z"/>
</g>
</svg>
