<?xml version="1.0" encoding="utf-8"?>
<!-- Generator: Adobe Illustrator 18.0.0, SVG Export Plug-In . SVG Version: 6.00 Build 0)  -->
<!DOCTYPE svg PUBLIC "-//W3C//DTD SVG 1.1//EN" "http://www.w3.org/Graphics/SVG/1.1/DTD/svg11.dtd">
<svg version="1.1" id="Layer_1" xmlns="http://www.w3.org/2000/svg" xmlns:xlink="http://www.w3.org/1999/xlink" x="0px" y="0px"
	 viewBox="0 0 792 612" enable-background="new 0 0 792 612" xml:space="preserve">
<g>
	<path d="M147.4,382.5V612H243v-38.2h57.4V612h19.1V382.5H147.4z M300.4,554.6H243v-38.2h57.4V554.6z M300.4,497.2H243V459h57.4
		V497.2z M300.4,439.9H243v-38.2h57.4V439.9z"/>
	<path d="M376.9,229.5v57.4h248.6v-57.4H376.9z M415.1,267.8H396v-19.1h19.1V267.8z M453.4,267.8h-19.1v-19.1h19.1V267.8z
		 M491.6,267.8h-19.1v-19.1h19.1V267.8z M529.9,267.8h-19.1v-19.1h19.1V267.8z M568.1,267.8H549v-19.1h19.1V267.8z M606.4,267.8
		h-19.1v-19.1h19.1V267.8z"/>
	<polygon points="319.5,363.4 319.5,286.9 357.8,286.9 357.8,210.4 396,210.4 396,133.9 434.2,133.9 434.2,95.6 491.6,95.6 491.6,0 
		90,0 90,612 128.2,612 128.2,363.4 	"/>
	<path d="M453.4,153h-38.2v57.4h172.1V153H549v-38.2h-95.6V153z M453.4,191.2h-19.1v-19.1h19.1V191.2z M549,172.1h19.1v19.1H549
		V172.1z M491.6,172.1h19.1v19.1h-19.1V172.1z"/>
	<polygon points="510.8,0 510.8,95.6 568.1,95.6 568.1,133.9 606.4,133.9 606.4,210.4 644.6,210.4 644.6,286.9 663.8,286.9 
		663.8,612 702,612 702,0 	"/>
	<path d="M338.6,306v57.4V612h19.1V497.2H396V612h19.1V497.2h38.2V612h19.1V497.2h38.2V612h19.1V497.2h38.2V612H587V497.2h38.2V612
		h19.1V306H338.6z M396,478.1h-38.2v-76.5H396V478.1z M396,363.4h-38.2v-38.2H396V363.4z M453.4,478.1h-38.2v-76.5h38.2V478.1z
		 M453.4,363.4h-38.2v-38.2h38.2V363.4z M510.8,478.1h-38.2v-76.5h38.2V478.1z M510.8,363.4h-38.2v-38.2h38.2V363.4z M568.1,478.1
		h-38.2v-76.5h38.2V478.1z M568.1,363.4h-38.2v-38.2h38.2V363.4z M625.5,478.1h-38.2v-76.5h38.2V478.1z M625.5,363.4h-38.2v-38.2
		h38.2V363.4z"/>
</g>
</svg>
