<?xml version="1.0" encoding="utf-8"?>
<!-- Generator: Adobe Illustrator 20.0.0, SVG Export Plug-In . SVG Version: 6.00 Build 0)  -->
<svg version="1.1" xmlns="http://www.w3.org/2000/svg" xmlns:xlink="http://www.w3.org/1999/xlink" x="0px" y="0px"
	 viewBox="0 0 120 120" enable-background="new 0 0 120 120" xml:space="preserve">
<title>Metro Train</title>
<g>
	<rect fill="none" width="120" height="120"/>
	<path d="M95,78.4761963V62.6854858c0-1.8193359-0.151123-3.6938477-0.4476318-5.4890747
		C88.6943359,21.2805176,88.4074097,10,75.4761963,10H44.5238037c-12.9368896,0-13.2305908,11.3591309-19.0762939,47.1964111
		C25.151001,59.0040283,25,60.8537598,25,62.6854858v15.7907104c0,6.8373413,6.4959106,12.3809204,13.333313,12.3809204
		L25.9523926,110H38.333313l6.1904907-19.1428833h30.9523926L81.666687,110h12.3809204L81.666687,90.8571167
		C88.5039673,90.8571167,95,85.3135376,95,78.4761963z M51,16h18v4H51V16z M60.000061,80.0999756
		c-2.8082886,0-5.1000366-2.291748-5.1000366-5.0999756c0-2.8082886,2.291748-5.1000366,5.1000366-5.1000366
		c2.8081665,0,5.0999146,2.291748,5.0999146,5.1000366C65.0999756,77.8082275,62.8082275,80.0999756,60.000061,80.0999756z M60,60
		l-23-6l5.0333252-25h35.9332275L83,54L60,60z"/>
</g>
</svg>
