<?xml version="1.0" encoding="utf-8"?>
<!-- Generator: Adobe Illustrator 20.0.0, SVG Export Plug-In . SVG Version: 6.00 Build 0)  -->
<svg version="1.1" xmlns="http://www.w3.org/2000/svg" xmlns:xlink="http://www.w3.org/1999/xlink" x="0px" y="0px"
	 viewBox="0 0 120 120" enable-background="new 0 0 120 120" xml:space="preserve">
<title>Cars</title>
<g>
	<polygon fill="none" points="120,120 0,120 0,0 119.8714294,0 	"/>
	<path d="M109.5661621,37H98.9054565l-6.6334839-18.3181763
		C91.625,16.75,90.4443359,15.0454102,88.4359741,15.0454102H43.8499756c-2.0079956,0-3.1416626,1.6212158-3.8365479,3.6364136
		L33.383606,37H23.793457C21.7850952,37,20,38.170166,20,39.663269v2.2286987C20,43.385437,21.7850952,44,23.793457,44h1.6745605
		l-7.9545898,22H7.9273071c-2.0083618,0-3.7909546,1.170166-3.7909546,2.663269v2.0923462
		C4.1363525,72.2490845,5.9189453,73,7.9273071,73H12v29.5843506c0,1.8612671,1.5089111,3.3701782,3.3701782,3.3701782h7.2072754
		c1.861084,0,3.369812-1.508728,3.369812-3.369812V99H77v3.5774536c0,1.8643188,1.3636475,3.3770752,3.046875,3.3770752h7.906189
		c1.6832886,0,3.046936-1.5127563,3.046936-3.3770752V80v-3.3771362V73h3v4.0089111C94,78.6608276,95.3391724,80,96.9910889,80
		h5.9165649c1.6832275,0,3.046875-1.5127563,3.046875-3.3771362v-5.0592651v-5.8683472V44h3.6116333
		C111.5741577,44,113,43.2490845,113,41.7556152V39.663269C113,38.170166,111.5741577,37,109.5661621,37z M45,18h42.5l8,21H37L45,18
		z M29,45h45l7.2243652,21H21.9879761L29,45z M37,87.2861938c0,2.0083618-1.6279907,3.6363525-3.6363525,3.6363525
		l-14.5018311-3.6363525C16.75,86.75,15.2254639,85.5083618,15.2254639,83.5c0-2.0079956,1.6283569-2.5,3.6363525-2.5h14.5018311
		C35.3720093,81,37,82.1417847,37,84.1497803V87.2861938z M84.1381836,87.2861938l-14.5018311,3.6363525
		C67.6279907,90.9225464,66,89.2945557,66,87.2861938v-3.1364136C66,82.1417847,67.6279907,81,69.6363525,81h14.5018311
		c2.0079956,0,3.6363525,0.4920044,3.6363525,2.5C87.7745361,85.5083618,86.25,86.75,84.1381836,87.2861938z M98.6428833,64.9934692
		L98.6167603,65H85.6865234c0,0-3.0330811-7-2.6865234-7h15.6428833C100.6508789,58,102,59.4920044,102,61.5
		C102,63.5083618,100.6508789,64.9934692,98.6428833,64.9934692z"/>
</g>
</svg>
