<?xml version="1.0" encoding="utf-8"?>
<!-- Generator: Adobe Illustrator 20.0.0, SVG Export Plug-In . SVG Version: 6.00 Build 0)  -->
<svg version="1.1" xmlns="http://www.w3.org/2000/svg" xmlns:xlink="http://www.w3.org/1999/xlink" x="0px" y="0px"
	 viewBox="0 0 120 120" enable-background="new 0 0 120 120" xml:space="preserve">
<title>Faucet</title>
<g>
	<g>
		<path d="M91.5,75.9993286c0,0-0.8015747,2.2547607-2,5c-5.375,12.3125-8.2999878,14.6672974-8.2999878,19
			c0,9.25,10.2999878,9,10.2999878,9s10.2999878,0.25,10.2999878-9c0-4.3327026-2.9249878-6.6875-8.2999878-19
			C92.3015747,78.2540894,91.5,75.9993286,91.5,75.9993286z M85.18927,100.8347778
			c-2.1771851-1.0455933,3.4928589-9.8427734,3.4928589-9.8427734C88.8564453,97.6121216,87.366333,101.880188,85.18927,100.8347778
			z"/>
		<path d="M101.1154785,60H101v-2v-8.0223999C101,41.3334961,94.2423706,34,85.5982056,34H55.9941406v-3.9279175
			C55.9941406,27.9226074,54.9608765,26,53,26h-4v-7h11.7890015C62.4243774,19,64,17.109375,64,15s-1.5756226-4-3.2109985-4
			h-31.579895C27.5756226,11,26,12.890625,26,15s1.5756226,4,3.2091064,4H41v7h-4.4732666
			C34.5658569,26,34,27.9226074,34,30.0720825V34H15v-5.4227905C15,25.1129761,12.8081055,22,9.6843872,22C9.3584595,22,7,22,7,22
			v42c0,0,2.3584595,0,2.6843872,0C12.8081055,64,15,60.8870239,15,57.4227905V52h19v3c0,2.1498413,0.5658569,5,2.5267334,5H53
			c2.166687,0,2.9941406-2.8606567,2.9941406-5.010498V52H83v5v3h-0.1154785C80.8778687,60,79,62.0707397,79,63.7994995v1.0656128
			C79,66.5935059,80.6278687,67,82.6345215,67h18.730957C103.3721313,67,105,66.5935059,105,64.8651123v-1.0656128
			C105,62.0707397,103.1221313,60,101.1154785,60z"/>
	</g>
</g>
</svg>
