<?xml version="1.0" encoding="utf-8"?>
<!-- Generator: Adobe Illustrator 18.0.0, SVG Export Plug-In . SVG Version: 6.00 Build 0)  -->
<!DOCTYPE svg PUBLIC "-//W3C//DTD SVG 1.1//EN" "http://www.w3.org/Graphics/SVG/1.1/DTD/svg11.dtd">
<svg version="1.1" id="Layer_1" xmlns="http://www.w3.org/2000/svg" xmlns:xlink="http://www.w3.org/1999/xlink" x="0px" y="0px"
	 viewBox="0 0 792 612" enable-background="new 0 0 792 612" xml:space="preserve">
<g>
	<path d="M395,248.6c31.6,0,57.4-25.7,57.4-57.4s-25.8-57.3-57.4-57.3s-57.4,25.7-57.4,57.4S363.4,248.6,395,248.6z"/>
	<path d="M89,0v612h116.1l0,0l147.7-357c-20.6-13.7-34.3-37.1-34.3-63.7c0-42.3,34.2-76.5,76.5-76.5s76.5,34.2,76.5,76.5
		c0,26.6-13.6,50-34.3,63.7l147.7,357H701V0H89z M184.4,322.8L168.1,333c-25.8-41.1-40.9-89.6-40.9-141.8s15.1-100.6,40.9-141.8
		l16.3,10.2c-24,38.2-38.1,83.2-38.1,131.6S160.5,284.6,184.4,322.8z M233,292.5l-16.3,10.2c-20.3-32.3-32.1-70.4-32.1-111.4
		s11.9-79.1,32.1-111.4L233,90c-18.4,29.4-29.3,64-29.3,101.2S214.6,263.1,233,292.5z M281.6,262.1l-16.2,10.2
		c-14.7-23.5-23.4-51.2-23.4-81s8.6-57.5,23.4-81l16.2,10.2c-12.9,20.6-20.5,44.8-20.5,70.9S268.7,241.5,281.6,262.1z M524.6,272.3
		l-16.2-10.2c12.9-20.6,20.5-44.8,20.5-70.9s-7.6-50.3-20.5-70.9l16.2-10.2c14.7,23.5,23.4,51.2,23.4,81S539.4,248.8,524.6,272.3z
		 M573.2,302.6L557,292.5c18.4-29.4,29.3-64,29.3-101.2S575.4,119.4,557,90l16.3-10.2c20.3,32.3,32.1,70.4,32.1,111.4
		S593.5,270.3,573.2,302.6z M621.8,333l-16.3-10.2c24-38.2,38.1-83.2,38.1-131.6s-14.1-93.4-38.1-131.6l16.3-10.2
		c25.8,41.1,40.9,89.6,40.9,141.8S647.6,291.9,621.8,333z"/>
	<polygon points="256.1,612 534.5,612 395,472.5 	"/>
	<polygon points="351.1,401.6 395,445.5 438.9,401.6 	"/>
	<path d="M395,267.8c-2,0-3.9-0.4-5.8-0.6l-47.7,115.3h107.1l-47.8-115.3C398.9,267.3,397,267.8,395,267.8z"/>
	<polygon points="259.2,581.3 381.5,459 330.8,408.3 	"/>
	<polygon points="530.8,581.3 459.2,408.3 408.5,459 	"/>
</g>
</svg>
