<?xml version="1.0" encoding="utf-8"?>
<!-- Generator: Adobe Illustrator 18.0.0, SVG Export Plug-In . SVG Version: 6.00 Build 0)  -->
<!DOCTYPE svg PUBLIC "-//W3C//DTD SVG 1.1//EN" "http://www.w3.org/Graphics/SVG/1.1/DTD/svg11.dtd">
<svg version="1.1" id="Layer_1" xmlns="http://www.w3.org/2000/svg" xmlns:xlink="http://www.w3.org/1999/xlink" x="0px" y="0px"
	 viewBox="0 0 792 612" enable-background="0 0 792 612" xml:space="preserve">
<g>
	<path d="M90,0v612h612V0H90z M568.1,554.6c-31.7,0-57.4-25.7-57.4-57.4s34.9-58.7,57.4-114.8
		c23.7,57,57.4,83.1,57.4,114.8S599.8,554.6,568.1,554.6z M625.5,363.4H510.8c-10.5,0-19.1-8.6-19.1-19.1c0-10.5,8.6-19.1,19.1-19.1
		v-10.6v-27.6h-27.6H376.9V306c0,10.5-8.6,19.1-19.1,19.1h-95.6c-10.5,0-19.1-8.6-19.1-19.1v-19.1h-76.5V306
		c0,10.5-8.6,19.1-19.1,19.1h-19.1V133.9h19.1c10.5,0,19.1,8.6,19.1,19.1v19.1H243V153c0-10.5,8.6-19.1,19.1-19.1h19.1V95.6H243
		c-10.5,0-19.1-8.6-19.1-19.1c0-10.5,8.6-19.1,19.1-19.1h133.9c10.5,0,19.1,8.6,19.1,19.1c0,10.5-8.6,19.1-19.1,19.1h-38.2v38.2
		h19.1c10.5,0,19.1,8.6,19.1,19.1v19.1H549c42.3,0,76.5,34.2,76.5,76.5c0,0.1,0,0.3,0,0.4v76.1h0c10.5,0,19.1,8.6,19.1,19.1
		S636,363.4,625.5,363.4z"/>
	<path d="M529.9,497.2c0,21.1,17.2,38.2,38.2,38.2s38.2-17.2,38.2-38.2c0-11.8-7.3-20.1-19.1-38.2
		c-5.4-8.3-19-38.2-19-38.2S554.5,450.6,549,459C537.6,476.4,529.9,485.6,529.9,497.2z"/>
</g>
</svg>
