<?xml version="1.0" encoding="utf-8"?>
<!-- Generator: Adobe Illustrator 18.0.0, SVG Export Plug-In . SVG Version: 6.00 Build 0)  -->
<!DOCTYPE svg PUBLIC "-//W3C//DTD SVG 1.1//EN" "http://www.w3.org/Graphics/SVG/1.1/DTD/svg11.dtd">
<svg version="1.1" id="Layer_1" xmlns="http://www.w3.org/2000/svg" xmlns:xlink="http://www.w3.org/1999/xlink" x="0px" y="0px"
	 viewBox="0 0 792 612" enable-background="new 0 0 792 612" xml:space="preserve">
<g>
	<circle cx="396" cy="95.6" r="38.2"/>
	<path d="M461,174.9c4.7-6.4,6.5-12.2,5.6-17.7c-1.6-9.8-11.5-19-23.9-28.3c-6.8,9.5-16.4,16.8-27.6,20.8v31.2
		C434.6,184,453.1,185.6,461,174.9z"/>
	<path d="M448.5,372.7c1.9-12.1-6.3-26.2-24.3-42c-2.7-2.3-5.7-4.9-9.1-7.6v83.7
		C432.8,396.8,446.4,385.7,448.5,372.7z"/>
	<path d="M364.7,440.7c-19,8.3-36.3,19.5-52.9,31c19.1,12.7,41.3,21.2,65.2,24.2v-60.6c-0.6,0.3-1.3,0.5-1.9,0.8
		L364.7,440.7z"/>
	<path d="M376.9,185c-10.5-0.6-19.6,0.4-25.4,5.2c-7.5,6.2-12.1,12.9-13.8,20.1h39.2V185z"/>
	<path d="M349.2,248.6c7.3,10.3,17.2,20.5,27.7,30.1v-30.1H349.2z"/>
	<path d="M90,0v612h612V0H90z M578.1,401.6c-24.4,77.5-96.5,133.9-182.1,133.9c-44.3,0-85.1-15.1-117.4-40.5
		c-31.9,21.8-66.4,40.9-111.6,40.9v-9.6c41.7,0,73.2-16.9,103.9-37.7c-26.3-22.9-46.3-52.9-57-87h-28.3l47.8-57.4l47.8,57.4h-26.9
		c10.4,25.6,27.5,47.7,49.1,64.2c17.9-12.5,36.5-24.8,57.4-33.9l10.4-4.5c1.9-0.8,3.8-1.6,5.7-2.5V291.7c-15.3-13.4-29.8-28-39.2-43
		h-56.4v-38.2h46.6c1.8-10.2,7.7-19.4,17.5-27.5c8-6.6,19.1-8.1,31.5-7.4v-25.7c-22.3-7.9-38.2-29.2-38.2-54.1
		c0-31.6,25.7-57.4,57.4-57.4s57.4,25.7,57.4,57.4c0,9-2.1,17.5-5.8,25c14.4,10.8,26.3,21.7,28.4,35.1c1.3,8.1-1.2,16.5-7.4,24.9
		c-10.8,14.7-31.7,13.4-53.5,10v19.8h95.6v38.2h-95.6v62.1c5.9,4.7,11.1,9,15.4,12.7c20.9,18.3,29.9,34.9,27.4,50.7
		c-2.8,18.1-20.4,31.6-42.8,43.5v78.3c55.7-7,102.1-44,122.6-94.3h-26.9l47.8-57.4l47.8,57.4H578.1z"/>
	<path d="M433,110.1l-5.6,7.8l2.8,2c4.3,3,8.5,6,12.4,9c1.9-2.6,3.5-5.4,4.9-8.3c-3.8-2.8-7.8-5.7-11.8-8.6
		L433,110.1z"/>
	<path d="M311.7,471.7c-2.8-1.9-5.6-3.8-8.3-5.9c-3.9,2.7-7.7,5.4-11.5,8.1c-7,5-14,10-21,14.7
		c2.5,2.2,5,4.3,7.7,6.3c6.4-4.4,12.7-8.8,18.9-13.3C302.2,478.4,306.9,475,311.7,471.7z"/>
</g>
</svg>
