<?xml version="1.0" encoding="utf-8"?>
<!-- Generator: Adobe Illustrator 18.0.0, SVG Export Plug-In . SVG Version: 6.00 Build 0)  -->
<!DOCTYPE svg PUBLIC "-//W3C//DTD SVG 1.1//EN" "http://www.w3.org/Graphics/SVG/1.1/DTD/svg11.dtd">
<svg version="1.1" id="Layer_1" xmlns="http://www.w3.org/2000/svg" xmlns:xlink="http://www.w3.org/1999/xlink" x="0px" y="0px"
	 viewBox="0 0 792 612" enable-background="new 0 0 792 612" xml:space="preserve">
<g>
	<path d="M464.8,264l16.4,23.1h215.5L574,78.8L464.8,264z M626.8,202.1l-56.6-47.2l-28.3,10.1l33-57.3L626.8,202.1z"
		/>
	<path d="M569.6,340.7c10.5,20.3,12.2,38.6,4.6,60c-5.8,16.7-20,39.8-54.2,55.2c-3.1,1.6-6.9,3.3-10.8,5
		c-33.8,15.4-74.4,34.5-75,151H702V306H522.6C546,315.1,562.5,326.9,569.6,340.7z"/>
	<path d="M455.5,406.7c9.3-3.7,17.1-6.7,22.6-9.4c10.5-4.7,18.9-9.6,25.2-14.7H90V612h191.2
		C282.4,474.1,398.1,429.2,455.5,406.7z"/>
	<path d="M396.1,609.8C396.1,609.4,396.1,609.4,396.1,609.8L396.1,609.8z"/>
	<path d="M396.1,612L396.1,612c0-1.1,0-1.8,0-2.2C396.1,610.2,396.1,610.9,396.1,612z"/>
	<polygon points="90,0 90,301.7 290.8,19.1 452.8,247.2 574,41.6 702,258.9 702,0 	"/>
	<path d="M290.8,52.1L90,334.8v28.6h422L290.8,52.1z M204.8,210.4l85.4-125.2l86.8,125.2l-95.6-38.2L204.8,210.4z"/>
</g>
</svg>
