<?xml version="1.0" encoding="utf-8"?>
<!-- Generator: Adobe Illustrator 18.0.0, SVG Export Plug-In . SVG Version: 6.00 Build 0)  -->
<!DOCTYPE svg PUBLIC "-//W3C//DTD SVG 1.1//EN" "http://www.w3.org/Graphics/SVG/1.1/DTD/svg11.dtd">
<svg version="1.1" id="Layer_1" xmlns="http://www.w3.org/2000/svg" xmlns:xlink="http://www.w3.org/1999/xlink" x="0px" y="0px"
	 viewBox="0 0 792 612" enable-background="0 0 792 612" xml:space="preserve">
<g>
	<path d="M90,0v612h612V267.8h-76.5v-19.1H702V0H90z M606.1,101.5l13.5,13.5L579,155.6l-13.5-13.5L606.1,101.5z
		 M434.2,19.1h19.1v76.5h-19.1V19.1z M281.5,101.5l40.6,40.6l-13.5,13.5L268,115L281.5,101.5z M185.6,248.6h76.5v19.1h-76.5V248.6z
		 M644.6,440v38.2H109.1l0.4-19c9.7-47.5,47.1-88.6,95.2-95.6c9.7-51.9,48.3-91.8,97.4-107.5c10.3-69.1,69.7-122.1,141.7-122.1
		c79.2,0,143.4,64.2,143.4,143.4c0,20.4-4.3,39.8-12,57.3C616,352.3,644.6,392.8,644.6,440z"/>
	<path d="M566.3,351.6c-11.2-4.6-23.5-7.3-36.5-7.3c-23.3,0-40.7,5.3-57.4,19.1c-11-52.8-59.3-91-114.8-95.6
		c-3.8-0.3-16.6-0.2-19.1,0c-13.6,0.8-26.3,4.2-38.2,9c-42.6,17.3-72.8,57.6-76.5,105.7c-46.3,0.2-86.8,33-95.6,76.5h497.2
		c0,0,0-12.6,0-19.1C625.5,400.1,601.1,365.9,566.3,351.6z"/>
</g>
</svg>
